<mxfile host="Electron" modified="2023-12-15T07:26:03.347Z" agent="Mozilla/5.0 (X11; Linux x86_64) AppleWebKit/537.36 (KHTML, like Gecko) draw.io/22.1.2 Chrome/114.0.5735.289 Electron/25.9.4 Safari/537.36" etag="HhujLl5fmxSZRSBYQX2i" version="22.1.2" type="device" pages="4">
  <diagram id="SQ3snEIVAlfGAOhcRpRP" name="ClassDiagram">
    <mxGraphModel dx="1936" dy="992" grid="1" gridSize="10" guides="1" tooltips="1" connect="1" arrows="1" fold="1" page="1" pageScale="1" pageWidth="827" pageHeight="1169" math="0" shadow="0">
      <root>
        <mxCell id="0" />
        <mxCell id="1" parent="0" />
        <mxCell id="yab_E59PaCfdo0H1siV8-1" value="Course" style="swimlane;fontStyle=1;align=center;verticalAlign=top;childLayout=stackLayout;horizontal=1;startSize=26;horizontalStack=0;resizeParent=1;resizeParentMax=0;resizeLast=0;collapsible=1;marginBottom=0;whiteSpace=wrap;html=1;" parent="1" vertex="1">
          <mxGeometry x="120" y="280" width="160" height="686" as="geometry" />
        </mxCell>
        <mxCell id="ISn-cLbXCTVT3khcro_t-4" value="-NEXT_ID:int" style="text;strokeColor=none;fillColor=none;align=left;verticalAlign=top;spacingLeft=4;spacingRight=4;overflow=hidden;rotatable=0;points=[[0,0.5],[1,0.5]];portConstraint=eastwest;whiteSpace=wrap;html=1;" vertex="1" parent="yab_E59PaCfdo0H1siV8-1">
          <mxGeometry y="26" width="160" height="26" as="geometry" />
        </mxCell>
        <mxCell id="pmKONMikWB3YTbTokbgS-2" value="-id:int" style="text;strokeColor=none;fillColor=none;align=left;verticalAlign=top;spacingLeft=4;spacingRight=4;overflow=hidden;rotatable=0;points=[[0,0.5],[1,0.5]];portConstraint=eastwest;whiteSpace=wrap;html=1;" parent="yab_E59PaCfdo0H1siV8-1" vertex="1">
          <mxGeometry y="52" width="160" height="26" as="geometry" />
        </mxCell>
        <mxCell id="ISn-cLbXCTVT3khcro_t-18" value="-courseId:int" style="text;strokeColor=none;fillColor=none;align=left;verticalAlign=top;spacingLeft=4;spacingRight=4;overflow=hidden;rotatable=0;points=[[0,0.5],[1,0.5]];portConstraint=eastwest;whiteSpace=wrap;html=1;" vertex="1" parent="yab_E59PaCfdo0H1siV8-1">
          <mxGeometry y="78" width="160" height="26" as="geometry" />
        </mxCell>
        <mxCell id="yab_E59PaCfdo0H1siV8-2" value="-title:String&lt;br&gt;" style="text;strokeColor=none;fillColor=none;align=left;verticalAlign=top;spacingLeft=4;spacingRight=4;overflow=hidden;rotatable=0;points=[[0,0.5],[1,0.5]];portConstraint=eastwest;whiteSpace=wrap;html=1;" parent="yab_E59PaCfdo0H1siV8-1" vertex="1">
          <mxGeometry y="104" width="160" height="26" as="geometry" />
        </mxCell>
        <mxCell id="yab_E59PaCfdo0H1siV8-7" value="-authorName:String" style="text;strokeColor=none;fillColor=none;align=left;verticalAlign=top;spacingLeft=4;spacingRight=4;overflow=hidden;rotatable=0;points=[[0,0.5],[1,0.5]];portConstraint=eastwest;whiteSpace=wrap;html=1;" parent="yab_E59PaCfdo0H1siV8-1" vertex="1">
          <mxGeometry y="130" width="160" height="26" as="geometry" />
        </mxCell>
        <mxCell id="yab_E59PaCfdo0H1siV8-6" value="-datePublished:Instant" style="text;strokeColor=none;fillColor=none;align=left;verticalAlign=top;spacingLeft=4;spacingRight=4;overflow=hidden;rotatable=0;points=[[0,0.5],[1,0.5]];portConstraint=eastwest;whiteSpace=wrap;html=1;" parent="yab_E59PaCfdo0H1siV8-1" vertex="1">
          <mxGeometry y="156" width="160" height="26" as="geometry" />
        </mxCell>
        <mxCell id="yab_E59PaCfdo0H1siV8-5" value="-price:double" style="text;strokeColor=none;fillColor=none;align=left;verticalAlign=top;spacingLeft=4;spacingRight=4;overflow=hidden;rotatable=0;points=[[0,0.5],[1,0.5]];portConstraint=eastwest;whiteSpace=wrap;html=1;" parent="yab_E59PaCfdo0H1siV8-1" vertex="1">
          <mxGeometry y="182" width="160" height="26" as="geometry" />
        </mxCell>
        <mxCell id="yab_E59PaCfdo0H1siV8-8" value="-rating:double" style="text;strokeColor=none;fillColor=none;align=left;verticalAlign=top;spacingLeft=4;spacingRight=4;overflow=hidden;rotatable=0;points=[[0,0.5],[1,0.5]];portConstraint=eastwest;whiteSpace=wrap;html=1;" parent="yab_E59PaCfdo0H1siV8-1" vertex="1">
          <mxGeometry y="208" width="160" height="26" as="geometry" />
        </mxCell>
        <mxCell id="yab_E59PaCfdo0H1siV8-29" value="-sections:List&amp;lt;Section&amp;gt;" style="text;strokeColor=none;fillColor=none;align=left;verticalAlign=top;spacingLeft=4;spacingRight=4;overflow=hidden;rotatable=0;points=[[0,0.5],[1,0.5]];portConstraint=eastwest;whiteSpace=wrap;html=1;" parent="yab_E59PaCfdo0H1siV8-1" vertex="1">
          <mxGeometry y="234" width="160" height="26" as="geometry" />
        </mxCell>
        <mxCell id="yab_E59PaCfdo0H1siV8-3" value="" style="line;strokeWidth=1;fillColor=none;align=left;verticalAlign=middle;spacingTop=-1;spacingLeft=3;spacingRight=3;rotatable=0;labelPosition=right;points=[];portConstraint=eastwest;strokeColor=inherit;" parent="yab_E59PaCfdo0H1siV8-1" vertex="1">
          <mxGeometry y="260" width="160" height="10" as="geometry" />
        </mxCell>
        <mxCell id="yab_E59PaCfdo0H1siV8-4" value="+getId():int" style="text;strokeColor=none;fillColor=none;align=left;verticalAlign=top;spacingLeft=4;spacingRight=4;overflow=hidden;rotatable=0;points=[[0,0.5],[1,0.5]];portConstraint=eastwest;whiteSpace=wrap;html=1;" parent="yab_E59PaCfdo0H1siV8-1" vertex="1">
          <mxGeometry y="270" width="160" height="26" as="geometry" />
        </mxCell>
        <mxCell id="yab_E59PaCfdo0H1siV8-26" value="+getCourseId():int" style="text;strokeColor=none;fillColor=none;align=left;verticalAlign=top;spacingLeft=4;spacingRight=4;overflow=hidden;rotatable=0;points=[[0,0.5],[1,0.5]];portConstraint=eastwest;whiteSpace=wrap;html=1;" parent="yab_E59PaCfdo0H1siV8-1" vertex="1">
          <mxGeometry y="296" width="160" height="26" as="geometry" />
        </mxCell>
        <mxCell id="ISn-cLbXCTVT3khcro_t-3" value="+setCourseId():void" style="text;strokeColor=none;fillColor=none;align=left;verticalAlign=top;spacingLeft=4;spacingRight=4;overflow=hidden;rotatable=0;points=[[0,0.5],[1,0.5]];portConstraint=eastwest;whiteSpace=wrap;html=1;" vertex="1" parent="yab_E59PaCfdo0H1siV8-1">
          <mxGeometry y="322" width="160" height="26" as="geometry" />
        </mxCell>
        <mxCell id="ISn-cLbXCTVT3khcro_t-5" value="+getTitle():String" style="text;strokeColor=none;fillColor=none;align=left;verticalAlign=top;spacingLeft=4;spacingRight=4;overflow=hidden;rotatable=0;points=[[0,0.5],[1,0.5]];portConstraint=eastwest;whiteSpace=wrap;html=1;" vertex="1" parent="yab_E59PaCfdo0H1siV8-1">
          <mxGeometry y="348" width="160" height="26" as="geometry" />
        </mxCell>
        <mxCell id="ISn-cLbXCTVT3khcro_t-6" value="+setTitle():Void&amp;nbsp;" style="text;strokeColor=none;fillColor=none;align=left;verticalAlign=top;spacingLeft=4;spacingRight=4;overflow=hidden;rotatable=0;points=[[0,0.5],[1,0.5]];portConstraint=eastwest;whiteSpace=wrap;html=1;" vertex="1" parent="yab_E59PaCfdo0H1siV8-1">
          <mxGeometry y="374" width="160" height="26" as="geometry" />
        </mxCell>
        <mxCell id="ISn-cLbXCTVT3khcro_t-7" value="+getAuthorName():String" style="text;strokeColor=none;fillColor=none;align=left;verticalAlign=top;spacingLeft=4;spacingRight=4;overflow=hidden;rotatable=0;points=[[0,0.5],[1,0.5]];portConstraint=eastwest;whiteSpace=wrap;html=1;" vertex="1" parent="yab_E59PaCfdo0H1siV8-1">
          <mxGeometry y="400" width="160" height="26" as="geometry" />
        </mxCell>
        <mxCell id="ISn-cLbXCTVT3khcro_t-8" value="+setAuthorName():Void" style="text;strokeColor=none;fillColor=none;align=left;verticalAlign=top;spacingLeft=4;spacingRight=4;overflow=hidden;rotatable=0;points=[[0,0.5],[1,0.5]];portConstraint=eastwest;whiteSpace=wrap;html=1;" vertex="1" parent="yab_E59PaCfdo0H1siV8-1">
          <mxGeometry y="426" width="160" height="26" as="geometry" />
        </mxCell>
        <mxCell id="ISn-cLbXCTVT3khcro_t-9" value="+getPrice():double" style="text;strokeColor=none;fillColor=none;align=left;verticalAlign=top;spacingLeft=4;spacingRight=4;overflow=hidden;rotatable=0;points=[[0,0.5],[1,0.5]];portConstraint=eastwest;whiteSpace=wrap;html=1;" vertex="1" parent="yab_E59PaCfdo0H1siV8-1">
          <mxGeometry y="452" width="160" height="26" as="geometry" />
        </mxCell>
        <mxCell id="ISn-cLbXCTVT3khcro_t-10" value="+setPrice():void" style="text;strokeColor=none;fillColor=none;align=left;verticalAlign=top;spacingLeft=4;spacingRight=4;overflow=hidden;rotatable=0;points=[[0,0.5],[1,0.5]];portConstraint=eastwest;whiteSpace=wrap;html=1;" vertex="1" parent="yab_E59PaCfdo0H1siV8-1">
          <mxGeometry y="478" width="160" height="26" as="geometry" />
        </mxCell>
        <mxCell id="ISn-cLbXCTVT3khcro_t-11" value="+getRating():double" style="text;strokeColor=none;fillColor=none;align=left;verticalAlign=top;spacingLeft=4;spacingRight=4;overflow=hidden;rotatable=0;points=[[0,0.5],[1,0.5]];portConstraint=eastwest;whiteSpace=wrap;html=1;" vertex="1" parent="yab_E59PaCfdo0H1siV8-1">
          <mxGeometry y="504" width="160" height="26" as="geometry" />
        </mxCell>
        <mxCell id="ISn-cLbXCTVT3khcro_t-12" value="+setRating():void" style="text;strokeColor=none;fillColor=none;align=left;verticalAlign=top;spacingLeft=4;spacingRight=4;overflow=hidden;rotatable=0;points=[[0,0.5],[1,0.5]];portConstraint=eastwest;whiteSpace=wrap;html=1;" vertex="1" parent="yab_E59PaCfdo0H1siV8-1">
          <mxGeometry y="530" width="160" height="26" as="geometry" />
        </mxCell>
        <mxCell id="ISn-cLbXCTVT3khcro_t-13" value="+getDatePublished():Instant" style="text;strokeColor=none;fillColor=none;align=left;verticalAlign=top;spacingLeft=4;spacingRight=4;overflow=hidden;rotatable=0;points=[[0,0.5],[1,0.5]];portConstraint=eastwest;whiteSpace=wrap;html=1;" vertex="1" parent="yab_E59PaCfdo0H1siV8-1">
          <mxGeometry y="556" width="160" height="26" as="geometry" />
        </mxCell>
        <mxCell id="ISn-cLbXCTVT3khcro_t-14" value="-convertInstant():Instant" style="text;strokeColor=none;fillColor=none;align=left;verticalAlign=top;spacingLeft=4;spacingRight=4;overflow=hidden;rotatable=0;points=[[0,0.5],[1,0.5]];portConstraint=eastwest;whiteSpace=wrap;html=1;" vertex="1" parent="yab_E59PaCfdo0H1siV8-1">
          <mxGeometry y="582" width="160" height="26" as="geometry" />
        </mxCell>
        <mxCell id="ISn-cLbXCTVT3khcro_t-15" value="+setDatePublished():void" style="text;strokeColor=none;fillColor=none;align=left;verticalAlign=top;spacingLeft=4;spacingRight=4;overflow=hidden;rotatable=0;points=[[0,0.5],[1,0.5]];portConstraint=eastwest;whiteSpace=wrap;html=1;" vertex="1" parent="yab_E59PaCfdo0H1siV8-1">
          <mxGeometry y="608" width="160" height="26" as="geometry" />
        </mxCell>
        <mxCell id="yab_E59PaCfdo0H1siV8-34" value="+getSections():List&amp;lt;Section&amp;gt;" style="text;strokeColor=none;fillColor=none;align=left;verticalAlign=top;spacingLeft=4;spacingRight=4;overflow=hidden;rotatable=0;points=[[0,0.5],[1,0.5]];portConstraint=eastwest;whiteSpace=wrap;html=1;" parent="yab_E59PaCfdo0H1siV8-1" vertex="1">
          <mxGeometry y="634" width="160" height="26" as="geometry" />
        </mxCell>
        <mxCell id="pmKONMikWB3YTbTokbgS-4" value="+addSections(Section):void" style="text;strokeColor=none;fillColor=none;align=left;verticalAlign=top;spacingLeft=4;spacingRight=4;overflow=hidden;rotatable=0;points=[[0,0.5],[1,0.5]];portConstraint=eastwest;whiteSpace=wrap;html=1;" parent="yab_E59PaCfdo0H1siV8-1" vertex="1">
          <mxGeometry y="660" width="160" height="26" as="geometry" />
        </mxCell>
        <mxCell id="yab_E59PaCfdo0H1siV8-10" value="Lesson" style="swimlane;fontStyle=1;align=center;verticalAlign=top;childLayout=stackLayout;horizontal=1;startSize=26;horizontalStack=0;resizeParent=1;resizeParentMax=0;resizeLast=0;collapsible=1;marginBottom=0;whiteSpace=wrap;html=1;" parent="1" vertex="1">
          <mxGeometry x="630" y="280" width="160" height="370" as="geometry" />
        </mxCell>
        <mxCell id="ISn-cLbXCTVT3khcro_t-16" value="-NEXT_ID:int" style="text;strokeColor=none;fillColor=none;align=left;verticalAlign=top;spacingLeft=4;spacingRight=4;overflow=hidden;rotatable=0;points=[[0,0.5],[1,0.5]];portConstraint=eastwest;whiteSpace=wrap;html=1;" vertex="1" parent="yab_E59PaCfdo0H1siV8-10">
          <mxGeometry y="26" width="160" height="26" as="geometry" />
        </mxCell>
        <mxCell id="yab_E59PaCfdo0H1siV8-12" value="-id:int" style="text;strokeColor=none;fillColor=none;align=left;verticalAlign=top;spacingLeft=4;spacingRight=4;overflow=hidden;rotatable=0;points=[[0,0.5],[1,0.5]];portConstraint=eastwest;whiteSpace=wrap;html=1;" parent="yab_E59PaCfdo0H1siV8-10" vertex="1">
          <mxGeometry y="52" width="160" height="26" as="geometry" />
        </mxCell>
        <mxCell id="ISn-cLbXCTVT3khcro_t-20" value="-lessonId:int" style="text;strokeColor=none;fillColor=none;align=left;verticalAlign=top;spacingLeft=4;spacingRight=4;overflow=hidden;rotatable=0;points=[[0,0.5],[1,0.5]];portConstraint=eastwest;whiteSpace=wrap;html=1;" vertex="1" parent="yab_E59PaCfdo0H1siV8-10">
          <mxGeometry y="78" width="160" height="26" as="geometry" />
        </mxCell>
        <mxCell id="yab_E59PaCfdo0H1siV8-11" value="-title:String&lt;br&gt;" style="text;strokeColor=none;fillColor=none;align=left;verticalAlign=top;spacingLeft=4;spacingRight=4;overflow=hidden;rotatable=0;points=[[0,0.5],[1,0.5]];portConstraint=eastwest;whiteSpace=wrap;html=1;" parent="yab_E59PaCfdo0H1siV8-10" vertex="1">
          <mxGeometry y="104" width="160" height="26" as="geometry" />
        </mxCell>
        <mxCell id="7sKG46PLj9Gb0CZZyful-49" value="-lessonType:LessonType" style="text;strokeColor=none;fillColor=none;align=left;verticalAlign=top;spacingLeft=4;spacingRight=4;overflow=hidden;rotatable=0;points=[[0,0.5],[1,0.5]];portConstraint=eastwest;whiteSpace=wrap;html=1;" parent="yab_E59PaCfdo0H1siV8-10" vertex="1">
          <mxGeometry y="130" width="160" height="26" as="geometry" />
        </mxCell>
        <mxCell id="yab_E59PaCfdo0H1siV8-13" value="-duration:int" style="text;strokeColor=none;fillColor=none;align=left;verticalAlign=top;spacingLeft=4;spacingRight=4;overflow=hidden;rotatable=0;points=[[0,0.5],[1,0.5]];portConstraint=eastwest;whiteSpace=wrap;html=1;" parent="yab_E59PaCfdo0H1siV8-10" vertex="1">
          <mxGeometry y="156" width="160" height="26" as="geometry" />
        </mxCell>
        <mxCell id="yab_E59PaCfdo0H1siV8-16" value="" style="line;strokeWidth=1;fillColor=none;align=left;verticalAlign=middle;spacingTop=-1;spacingLeft=3;spacingRight=3;rotatable=0;labelPosition=right;points=[];portConstraint=eastwest;strokeColor=inherit;" parent="yab_E59PaCfdo0H1siV8-10" vertex="1">
          <mxGeometry y="182" width="160" height="6" as="geometry" />
        </mxCell>
        <mxCell id="ISn-cLbXCTVT3khcro_t-24" value="+getLessonId():int" style="text;strokeColor=none;fillColor=none;align=left;verticalAlign=top;spacingLeft=4;spacingRight=4;overflow=hidden;rotatable=0;points=[[0,0.5],[1,0.5]];portConstraint=eastwest;whiteSpace=wrap;html=1;" vertex="1" parent="yab_E59PaCfdo0H1siV8-10">
          <mxGeometry y="188" width="160" height="26" as="geometry" />
        </mxCell>
        <mxCell id="ISn-cLbXCTVT3khcro_t-25" value="+setLessonId():void" style="text;strokeColor=none;fillColor=none;align=left;verticalAlign=top;spacingLeft=4;spacingRight=4;overflow=hidden;rotatable=0;points=[[0,0.5],[1,0.5]];portConstraint=eastwest;whiteSpace=wrap;html=1;" vertex="1" parent="yab_E59PaCfdo0H1siV8-10">
          <mxGeometry y="214" width="160" height="26" as="geometry" />
        </mxCell>
        <mxCell id="yab_E59PaCfdo0H1siV8-17" value="+getTitle():String" style="text;strokeColor=none;fillColor=none;align=left;verticalAlign=top;spacingLeft=4;spacingRight=4;overflow=hidden;rotatable=0;points=[[0,0.5],[1,0.5]];portConstraint=eastwest;whiteSpace=wrap;html=1;" parent="yab_E59PaCfdo0H1siV8-10" vertex="1">
          <mxGeometry y="240" width="160" height="26" as="geometry" />
        </mxCell>
        <mxCell id="yab_E59PaCfdo0H1siV8-28" value="+setTitle():void" style="text;strokeColor=none;fillColor=none;align=left;verticalAlign=top;spacingLeft=4;spacingRight=4;overflow=hidden;rotatable=0;points=[[0,0.5],[1,0.5]];portConstraint=eastwest;whiteSpace=wrap;html=1;" parent="yab_E59PaCfdo0H1siV8-10" vertex="1">
          <mxGeometry y="266" width="160" height="26" as="geometry" />
        </mxCell>
        <mxCell id="7sKG46PLj9Gb0CZZyful-48" value="+getLessonType():LessonType&amp;nbsp;" style="text;strokeColor=none;fillColor=none;align=left;verticalAlign=top;spacingLeft=4;spacingRight=4;overflow=hidden;rotatable=0;points=[[0,0.5],[1,0.5]];portConstraint=eastwest;whiteSpace=wrap;html=1;" parent="yab_E59PaCfdo0H1siV8-10" vertex="1">
          <mxGeometry y="292" width="160" height="26" as="geometry" />
        </mxCell>
        <mxCell id="yab_E59PaCfdo0H1siV8-31" value="+getDuration():int" style="text;strokeColor=none;fillColor=none;align=left;verticalAlign=top;spacingLeft=4;spacingRight=4;overflow=hidden;rotatable=0;points=[[0,0.5],[1,0.5]];portConstraint=eastwest;whiteSpace=wrap;html=1;" parent="yab_E59PaCfdo0H1siV8-10" vertex="1">
          <mxGeometry y="318" width="160" height="26" as="geometry" />
        </mxCell>
        <mxCell id="ISn-cLbXCTVT3khcro_t-26" value="+setDuration():void" style="text;strokeColor=none;fillColor=none;align=left;verticalAlign=top;spacingLeft=4;spacingRight=4;overflow=hidden;rotatable=0;points=[[0,0.5],[1,0.5]];portConstraint=eastwest;whiteSpace=wrap;html=1;" vertex="1" parent="yab_E59PaCfdo0H1siV8-10">
          <mxGeometry y="344" width="160" height="26" as="geometry" />
        </mxCell>
        <mxCell id="yab_E59PaCfdo0H1siV8-18" value="Section" style="swimlane;fontStyle=1;align=center;verticalAlign=top;childLayout=stackLayout;horizontal=1;startSize=26;horizontalStack=0;resizeParent=1;resizeParentMax=0;resizeLast=0;collapsible=1;marginBottom=0;whiteSpace=wrap;html=1;" parent="1" vertex="1">
          <mxGeometry x="390" y="280" width="160" height="346" as="geometry" />
        </mxCell>
        <mxCell id="ISn-cLbXCTVT3khcro_t-17" value="-NEXT_ID:int" style="text;strokeColor=none;fillColor=none;align=left;verticalAlign=top;spacingLeft=4;spacingRight=4;overflow=hidden;rotatable=0;points=[[0,0.5],[1,0.5]];portConstraint=eastwest;whiteSpace=wrap;html=1;" vertex="1" parent="yab_E59PaCfdo0H1siV8-18">
          <mxGeometry y="26" width="160" height="26" as="geometry" />
        </mxCell>
        <mxCell id="yab_E59PaCfdo0H1siV8-22" value="-id:int" style="text;strokeColor=none;fillColor=none;align=left;verticalAlign=top;spacingLeft=4;spacingRight=4;overflow=hidden;rotatable=0;points=[[0,0.5],[1,0.5]];portConstraint=eastwest;whiteSpace=wrap;html=1;" parent="yab_E59PaCfdo0H1siV8-18" vertex="1">
          <mxGeometry y="52" width="160" height="26" as="geometry" />
        </mxCell>
        <mxCell id="ISn-cLbXCTVT3khcro_t-19" value="-sectionId:int" style="text;strokeColor=none;fillColor=none;align=left;verticalAlign=top;spacingLeft=4;spacingRight=4;overflow=hidden;rotatable=0;points=[[0,0.5],[1,0.5]];portConstraint=eastwest;whiteSpace=wrap;html=1;" vertex="1" parent="yab_E59PaCfdo0H1siV8-18">
          <mxGeometry y="78" width="160" height="26" as="geometry" />
        </mxCell>
        <mxCell id="yab_E59PaCfdo0H1siV8-19" value="-title:String&lt;br&gt;" style="text;strokeColor=none;fillColor=none;align=left;verticalAlign=top;spacingLeft=4;spacingRight=4;overflow=hidden;rotatable=0;points=[[0,0.5],[1,0.5]];portConstraint=eastwest;whiteSpace=wrap;html=1;" parent="yab_E59PaCfdo0H1siV8-18" vertex="1">
          <mxGeometry y="104" width="160" height="26" as="geometry" />
        </mxCell>
        <mxCell id="pmKONMikWB3YTbTokbgS-3" value="-lesson:Lesson" style="text;strokeColor=none;fillColor=none;align=left;verticalAlign=top;spacingLeft=4;spacingRight=4;overflow=hidden;rotatable=0;points=[[0,0.5],[1,0.5]];portConstraint=eastwest;whiteSpace=wrap;html=1;" parent="yab_E59PaCfdo0H1siV8-18" vertex="1">
          <mxGeometry y="130" width="160" height="26" as="geometry" />
        </mxCell>
        <mxCell id="yab_E59PaCfdo0H1siV8-30" value="-lessons:List&amp;lt;Lesson&amp;gt;" style="text;strokeColor=none;fillColor=none;align=left;verticalAlign=top;spacingLeft=4;spacingRight=4;overflow=hidden;rotatable=0;points=[[0,0.5],[1,0.5]];portConstraint=eastwest;whiteSpace=wrap;html=1;" parent="yab_E59PaCfdo0H1siV8-18" vertex="1">
          <mxGeometry y="156" width="160" height="26" as="geometry" />
        </mxCell>
        <mxCell id="yab_E59PaCfdo0H1siV8-24" value="" style="line;strokeWidth=1;fillColor=none;align=left;verticalAlign=middle;spacingTop=-1;spacingLeft=3;spacingRight=3;rotatable=0;labelPosition=right;points=[];portConstraint=eastwest;strokeColor=inherit;" parent="yab_E59PaCfdo0H1siV8-18" vertex="1">
          <mxGeometry y="182" width="160" height="8" as="geometry" />
        </mxCell>
        <mxCell id="ISn-cLbXCTVT3khcro_t-22" value="+getSectionId():int" style="text;strokeColor=none;fillColor=none;align=left;verticalAlign=top;spacingLeft=4;spacingRight=4;overflow=hidden;rotatable=0;points=[[0,0.5],[1,0.5]];portConstraint=eastwest;whiteSpace=wrap;html=1;" vertex="1" parent="yab_E59PaCfdo0H1siV8-18">
          <mxGeometry y="190" width="160" height="26" as="geometry" />
        </mxCell>
        <mxCell id="ISn-cLbXCTVT3khcro_t-23" value="+setSectionId():void" style="text;strokeColor=none;fillColor=none;align=left;verticalAlign=top;spacingLeft=4;spacingRight=4;overflow=hidden;rotatable=0;points=[[0,0.5],[1,0.5]];portConstraint=eastwest;whiteSpace=wrap;html=1;" vertex="1" parent="yab_E59PaCfdo0H1siV8-18">
          <mxGeometry y="216" width="160" height="26" as="geometry" />
        </mxCell>
        <mxCell id="yab_E59PaCfdo0H1siV8-25" value="+getTitle():String" style="text;strokeColor=none;fillColor=none;align=left;verticalAlign=top;spacingLeft=4;spacingRight=4;overflow=hidden;rotatable=0;points=[[0,0.5],[1,0.5]];portConstraint=eastwest;whiteSpace=wrap;html=1;" parent="yab_E59PaCfdo0H1siV8-18" vertex="1">
          <mxGeometry y="242" width="160" height="26" as="geometry" />
        </mxCell>
        <mxCell id="yab_E59PaCfdo0H1siV8-27" value="+setTitle():void" style="text;strokeColor=none;fillColor=none;align=left;verticalAlign=top;spacingLeft=4;spacingRight=4;overflow=hidden;rotatable=0;points=[[0,0.5],[1,0.5]];portConstraint=eastwest;whiteSpace=wrap;html=1;" parent="yab_E59PaCfdo0H1siV8-18" vertex="1">
          <mxGeometry y="268" width="160" height="26" as="geometry" />
        </mxCell>
        <mxCell id="yab_E59PaCfdo0H1siV8-33" value="+getLessons():List&amp;lt;Lesson&amp;gt;" style="text;strokeColor=none;fillColor=none;align=left;verticalAlign=top;spacingLeft=4;spacingRight=4;overflow=hidden;rotatable=0;points=[[0,0.5],[1,0.5]];portConstraint=eastwest;whiteSpace=wrap;html=1;" parent="yab_E59PaCfdo0H1siV8-18" vertex="1">
          <mxGeometry y="294" width="160" height="26" as="geometry" />
        </mxCell>
        <mxCell id="pmKONMikWB3YTbTokbgS-5" value="+addLesson:void" style="text;strokeColor=none;fillColor=none;align=left;verticalAlign=top;spacingLeft=4;spacingRight=4;overflow=hidden;rotatable=0;points=[[0,0.5],[1,0.5]];portConstraint=eastwest;whiteSpace=wrap;html=1;" parent="yab_E59PaCfdo0H1siV8-18" vertex="1">
          <mxGeometry y="320" width="160" height="26" as="geometry" />
        </mxCell>
        <mxCell id="yab_E59PaCfdo0H1siV8-35" style="edgeStyle=orthogonalEdgeStyle;rounded=0;orthogonalLoop=1;jettySize=auto;html=1;entryX=0;entryY=0.5;entryDx=0;entryDy=0;endArrow=none;endFill=0;exitX=1;exitY=0.5;exitDx=0;exitDy=0;" parent="1" source="yab_E59PaCfdo0H1siV8-6" target="yab_E59PaCfdo0H1siV8-30" edge="1">
          <mxGeometry relative="1" as="geometry">
            <mxPoint x="320" y="493" as="sourcePoint" />
          </mxGeometry>
        </mxCell>
        <mxCell id="yab_E59PaCfdo0H1siV8-36" style="edgeStyle=orthogonalEdgeStyle;rounded=0;orthogonalLoop=1;jettySize=auto;html=1;exitX=1;exitY=0.5;exitDx=0;exitDy=0;entryX=0;entryY=0.5;entryDx=0;entryDy=0;endArrow=none;endFill=0;" parent="1" source="yab_E59PaCfdo0H1siV8-30" target="yab_E59PaCfdo0H1siV8-13" edge="1">
          <mxGeometry relative="1" as="geometry" />
        </mxCell>
        <mxCell id="xgb36805R0s2YH3dAti3-2" value="1..*" style="text;html=1;align=center;verticalAlign=middle;resizable=0;points=[];autosize=1;strokeColor=none;fillColor=none;" parent="1" vertex="1">
          <mxGeometry x="350" y="420" width="40" height="30" as="geometry" />
        </mxCell>
        <mxCell id="xgb36805R0s2YH3dAti3-3" value="1" style="text;html=1;align=center;verticalAlign=middle;resizable=0;points=[];autosize=1;strokeColor=none;fillColor=none;" parent="1" vertex="1">
          <mxGeometry x="280" y="420" width="30" height="30" as="geometry" />
        </mxCell>
        <mxCell id="xgb36805R0s2YH3dAti3-4" value="1" style="text;html=1;align=center;verticalAlign=middle;resizable=0;points=[];autosize=1;strokeColor=none;fillColor=none;" parent="1" vertex="1">
          <mxGeometry x="550" y="420" width="30" height="30" as="geometry" />
        </mxCell>
        <mxCell id="xgb36805R0s2YH3dAti3-5" value="1..*" style="text;html=1;align=center;verticalAlign=middle;resizable=0;points=[];autosize=1;strokeColor=none;fillColor=none;" parent="1" vertex="1">
          <mxGeometry x="590" y="420" width="40" height="30" as="geometry" />
        </mxCell>
        <mxCell id="xgb36805R0s2YH3dAti3-17" value="CourseManager" style="swimlane;fontStyle=1;align=center;verticalAlign=top;childLayout=stackLayout;horizontal=1;startSize=26;horizontalStack=0;resizeParent=1;resizeParentMax=0;resizeLast=0;collapsible=1;marginBottom=0;whiteSpace=wrap;html=1;" parent="1" vertex="1">
          <mxGeometry x="80" y="1250" width="300" height="1008" as="geometry" />
        </mxCell>
        <mxCell id="xgb36805R0s2YH3dAti3-23" value="-cources:List&amp;lt;Course&amp;gt;" style="text;strokeColor=none;fillColor=none;align=left;verticalAlign=top;spacingLeft=4;spacingRight=4;overflow=hidden;rotatable=0;points=[[0,0.5],[1,0.5]];portConstraint=eastwest;whiteSpace=wrap;html=1;" parent="xgb36805R0s2YH3dAti3-17" vertex="1">
          <mxGeometry y="26" width="300" height="26" as="geometry" />
        </mxCell>
        <mxCell id="xgb36805R0s2YH3dAti3-24" value="" style="line;strokeWidth=1;fillColor=none;align=left;verticalAlign=middle;spacingTop=-1;spacingLeft=3;spacingRight=3;rotatable=0;labelPosition=right;points=[];portConstraint=eastwest;strokeColor=inherit;" parent="xgb36805R0s2YH3dAti3-17" vertex="1">
          <mxGeometry y="52" width="300" height="46" as="geometry" />
        </mxCell>
        <mxCell id="7sKG46PLj9Gb0CZZyful-4" value="+ loadSampleDataOne(): void" style="text;strokeColor=none;fillColor=none;align=left;verticalAlign=top;spacingLeft=4;spacingRight=4;overflow=hidden;rotatable=0;points=[[0,0.5],[1,0.5]];portConstraint=eastwest;whiteSpace=wrap;html=1;" parent="xgb36805R0s2YH3dAti3-17" vertex="1">
          <mxGeometry y="98" width="300" height="26" as="geometry" />
        </mxCell>
        <mxCell id="7sKG46PLj9Gb0CZZyful-6" value="&lt;div&gt;+ loadSampleDataTwo(): void&lt;/div&gt;&lt;div&gt;&lt;br&gt;&lt;/div&gt;" style="text;strokeColor=none;fillColor=none;align=left;verticalAlign=top;spacingLeft=4;spacingRight=4;overflow=hidden;rotatable=0;points=[[0,0.5],[1,0.5]];portConstraint=eastwest;whiteSpace=wrap;html=1;" parent="xgb36805R0s2YH3dAti3-17" vertex="1">
          <mxGeometry y="124" width="300" height="26" as="geometry" />
        </mxCell>
        <mxCell id="7sKG46PLj9Gb0CZZyful-22" value="&lt;div&gt;+ createCourse(): Course&lt;/div&gt;&lt;div&gt;&lt;br&gt;&lt;/div&gt;" style="text;strokeColor=none;fillColor=none;align=left;verticalAlign=top;spacingLeft=4;spacingRight=4;overflow=hidden;rotatable=0;points=[[0,0.5],[1,0.5]];portConstraint=eastwest;whiteSpace=wrap;html=1;" parent="xgb36805R0s2YH3dAti3-17" vertex="1">
          <mxGeometry y="150" width="300" height="26" as="geometry" />
        </mxCell>
        <mxCell id="7sKG46PLj9Gb0CZZyful-52" value="&lt;div&gt;+ getCourse(): Course&lt;/div&gt;&lt;div&gt;&lt;br&gt;&lt;/div&gt;" style="text;strokeColor=none;fillColor=none;align=left;verticalAlign=top;spacingLeft=4;spacingRight=4;overflow=hidden;rotatable=0;points=[[0,0.5],[1,0.5]];portConstraint=eastwest;whiteSpace=wrap;html=1;" parent="xgb36805R0s2YH3dAti3-17" vertex="1">
          <mxGeometry y="176" width="300" height="26" as="geometry" />
        </mxCell>
        <mxCell id="ng6Rg0tv5YCZBOo4RjvG-1" value="&lt;div&gt;+ removeCourse(): boolean&lt;/div&gt;&lt;div&gt;&lt;br&gt;&lt;/div&gt;" style="text;strokeColor=none;fillColor=none;align=left;verticalAlign=top;spacingLeft=4;spacingRight=4;overflow=hidden;rotatable=0;points=[[0,0.5],[1,0.5]];portConstraint=eastwest;whiteSpace=wrap;html=1;" parent="xgb36805R0s2YH3dAti3-17" vertex="1">
          <mxGeometry y="202" width="300" height="26" as="geometry" />
        </mxCell>
        <mxCell id="7sKG46PLj9Gb0CZZyful-53" value="+ removeCourseFile(): boolean" style="text;strokeColor=none;fillColor=none;align=left;verticalAlign=top;spacingLeft=4;spacingRight=4;overflow=hidden;rotatable=0;points=[[0,0.5],[1,0.5]];portConstraint=eastwest;whiteSpace=wrap;html=1;" parent="xgb36805R0s2YH3dAti3-17" vertex="1">
          <mxGeometry y="228" width="300" height="26" as="geometry" />
        </mxCell>
        <mxCell id="7sKG46PLj9Gb0CZZyful-55" value="&lt;div&gt;+ getCourses(): List&amp;lt;Course&amp;gt;&lt;/div&gt;&lt;div&gt;&lt;br&gt;&lt;/div&gt;" style="text;strokeColor=none;fillColor=none;align=left;verticalAlign=top;spacingLeft=4;spacingRight=4;overflow=hidden;rotatable=0;points=[[0,0.5],[1,0.5]];portConstraint=eastwest;whiteSpace=wrap;html=1;" parent="xgb36805R0s2YH3dAti3-17" vertex="1">
          <mxGeometry y="254" width="300" height="26" as="geometry" />
        </mxCell>
        <mxCell id="7sKG46PLj9Gb0CZZyful-54" value="&lt;div&gt;+ getListOfCourseFiles(): List&amp;lt;Path&amp;gt;&lt;/div&gt;" style="text;strokeColor=none;fillColor=none;align=left;verticalAlign=top;spacingLeft=4;spacingRight=4;overflow=hidden;rotatable=0;points=[[0,0.5],[1,0.5]];portConstraint=eastwest;whiteSpace=wrap;html=1;" parent="xgb36805R0s2YH3dAti3-17" vertex="1">
          <mxGeometry y="280" width="300" height="26" as="geometry" />
        </mxCell>
        <mxCell id="7sKG46PLj9Gb0CZZyful-9" value="&lt;div&gt;+ getCourseCount(): int&lt;br&gt;&lt;/div&gt;&lt;div&gt;&lt;span style=&quot;background-color: initial;&quot;&gt;&lt;br&gt;&lt;/span&gt;&lt;/div&gt;" style="text;strokeColor=none;fillColor=none;align=left;verticalAlign=top;spacingLeft=4;spacingRight=4;overflow=hidden;rotatable=0;points=[[0,0.5],[1,0.5]];portConstraint=eastwest;whiteSpace=wrap;html=1;" parent="xgb36805R0s2YH3dAti3-17" vertex="1">
          <mxGeometry y="306" width="300" height="26" as="geometry" />
        </mxCell>
        <mxCell id="7sKG46PLj9Gb0CZZyful-8" value="&lt;div&gt;+ getCourseFilesCount(): int&lt;br&gt;&lt;/div&gt;&lt;div&gt;&lt;span style=&quot;background-color: initial;&quot;&gt;&lt;br&gt;&lt;/span&gt;&lt;/div&gt;" style="text;strokeColor=none;fillColor=none;align=left;verticalAlign=top;spacingLeft=4;spacingRight=4;overflow=hidden;rotatable=0;points=[[0,0.5],[1,0.5]];portConstraint=eastwest;whiteSpace=wrap;html=1;" parent="xgb36805R0s2YH3dAti3-17" vertex="1">
          <mxGeometry y="332" width="300" height="26" as="geometry" />
        </mxCell>
        <mxCell id="7sKG46PLj9Gb0CZZyful-2" value="&lt;div&gt;+ editCourseName(): void&lt;br&gt;&lt;/div&gt;&lt;div&gt;&lt;span style=&quot;background-color: initial;&quot;&gt;&lt;br&gt;&lt;/span&gt;&lt;/div&gt;" style="text;strokeColor=none;fillColor=none;align=left;verticalAlign=top;spacingLeft=4;spacingRight=4;overflow=hidden;rotatable=0;points=[[0,0.5],[1,0.5]];portConstraint=eastwest;whiteSpace=wrap;html=1;" parent="xgb36805R0s2YH3dAti3-17" vertex="1">
          <mxGeometry y="358" width="300" height="26" as="geometry" />
        </mxCell>
        <mxCell id="7sKG46PLj9Gb0CZZyful-5" value="&lt;div&gt;+ retrieveCourse(): String&lt;br&gt;&lt;/div&gt;&lt;div&gt;&lt;span style=&quot;background-color: initial;&quot;&gt;&lt;br&gt;&lt;/span&gt;&lt;/div&gt;" style="text;strokeColor=none;fillColor=none;align=left;verticalAlign=top;spacingLeft=4;spacingRight=4;overflow=hidden;rotatable=0;points=[[0,0.5],[1,0.5]];portConstraint=eastwest;whiteSpace=wrap;html=1;" parent="xgb36805R0s2YH3dAti3-17" vertex="1">
          <mxGeometry y="384" width="300" height="26" as="geometry" />
        </mxCell>
        <mxCell id="7sKG46PLj9Gb0CZZyful-3" value="&lt;div&gt;+ writeCourseToFile(): void&lt;br&gt;&lt;/div&gt;&lt;div&gt;&lt;span style=&quot;background-color: initial;&quot;&gt;&lt;br&gt;&lt;/span&gt;&lt;/div&gt;" style="text;strokeColor=none;fillColor=none;align=left;verticalAlign=top;spacingLeft=4;spacingRight=4;overflow=hidden;rotatable=0;points=[[0,0.5],[1,0.5]];portConstraint=eastwest;whiteSpace=wrap;html=1;" parent="xgb36805R0s2YH3dAti3-17" vertex="1">
          <mxGeometry y="410" width="300" height="26" as="geometry" />
        </mxCell>
        <mxCell id="7sKG46PLj9Gb0CZZyful-11" value="&lt;div&gt;+ handleFileAlreadyExists(): void&lt;br&gt;&lt;/div&gt;&lt;div&gt;&lt;span style=&quot;background-color: initial;&quot;&gt;&lt;br&gt;&lt;/span&gt;&lt;/div&gt;" style="text;strokeColor=none;fillColor=none;align=left;verticalAlign=top;spacingLeft=4;spacingRight=4;overflow=hidden;rotatable=0;points=[[0,0.5],[1,0.5]];portConstraint=eastwest;whiteSpace=wrap;html=1;" parent="xgb36805R0s2YH3dAti3-17" vertex="1">
          <mxGeometry y="436" width="300" height="26" as="geometry" />
        </mxCell>
        <mxCell id="7sKG46PLj9Gb0CZZyful-12" value="&lt;div&gt;+ readCourseFromFile(): void&lt;br&gt;&lt;/div&gt;&lt;div&gt;&lt;br&gt;&lt;/div&gt;" style="text;strokeColor=none;fillColor=none;align=left;verticalAlign=top;spacingLeft=4;spacingRight=4;overflow=hidden;rotatable=0;points=[[0,0.5],[1,0.5]];portConstraint=eastwest;whiteSpace=wrap;html=1;" parent="xgb36805R0s2YH3dAti3-17" vertex="1">
          <mxGeometry y="462" width="300" height="26" as="geometry" />
        </mxCell>
        <mxCell id="7sKG46PLj9Gb0CZZyful-16" value="&lt;div&gt;+ addNewSection(): Section&lt;br&gt;&lt;/div&gt;&lt;div&gt;&lt;span style=&quot;background-color: initial;&quot;&gt;&lt;br&gt;&lt;/span&gt;&lt;/div&gt;" style="text;strokeColor=none;fillColor=none;align=left;verticalAlign=top;spacingLeft=4;spacingRight=4;overflow=hidden;rotatable=0;points=[[0,0.5],[1,0.5]];portConstraint=eastwest;whiteSpace=wrap;html=1;" parent="xgb36805R0s2YH3dAti3-17" vertex="1">
          <mxGeometry y="488" width="300" height="26" as="geometry" />
        </mxCell>
        <mxCell id="7sKG46PLj9Gb0CZZyful-15" value="&lt;div&gt;+ removeSection(): boolean&lt;br&gt;&lt;/div&gt;&lt;div&gt;&lt;span style=&quot;background-color: initial;&quot;&gt;&lt;br&gt;&lt;/span&gt;&lt;/div&gt;" style="text;strokeColor=none;fillColor=none;align=left;verticalAlign=top;spacingLeft=4;spacingRight=4;overflow=hidden;rotatable=0;points=[[0,0.5],[1,0.5]];portConstraint=eastwest;whiteSpace=wrap;html=1;" parent="xgb36805R0s2YH3dAti3-17" vertex="1">
          <mxGeometry y="514" width="300" height="26" as="geometry" />
        </mxCell>
        <mxCell id="7sKG46PLj9Gb0CZZyful-18" value="&lt;div&gt;+ getSection(): Section&lt;br&gt;&lt;/div&gt;&lt;div&gt;&lt;span style=&quot;background-color: initial;&quot;&gt;&lt;br&gt;&lt;/span&gt;&lt;/div&gt;" style="text;strokeColor=none;fillColor=none;align=left;verticalAlign=top;spacingLeft=4;spacingRight=4;overflow=hidden;rotatable=0;points=[[0,0.5],[1,0.5]];portConstraint=eastwest;whiteSpace=wrap;html=1;" parent="xgb36805R0s2YH3dAti3-17" vertex="1">
          <mxGeometry y="540" width="300" height="26" as="geometry" />
        </mxCell>
        <mxCell id="7sKG46PLj9Gb0CZZyful-14" value="&lt;div&gt;+ editSectionName(): void&lt;br&gt;&lt;/div&gt;&lt;div&gt;&lt;span style=&quot;background-color: initial;&quot;&gt;&lt;br&gt;&lt;/span&gt;&lt;/div&gt;" style="text;strokeColor=none;fillColor=none;align=left;verticalAlign=top;spacingLeft=4;spacingRight=4;overflow=hidden;rotatable=0;points=[[0,0.5],[1,0.5]];portConstraint=eastwest;whiteSpace=wrap;html=1;" parent="xgb36805R0s2YH3dAti3-17" vertex="1">
          <mxGeometry y="566" width="300" height="26" as="geometry" />
        </mxCell>
        <mxCell id="7sKG46PLj9Gb0CZZyful-17" value="&lt;div&gt;+ getSections(): List&amp;lt;Section&amp;gt;&lt;br&gt;&lt;/div&gt;&lt;div&gt;&lt;span style=&quot;background-color: initial;&quot;&gt;&lt;br&gt;&lt;/span&gt;&lt;/div&gt;" style="text;strokeColor=none;fillColor=none;align=left;verticalAlign=top;spacingLeft=4;spacingRight=4;overflow=hidden;rotatable=0;points=[[0,0.5],[1,0.5]];portConstraint=eastwest;whiteSpace=wrap;html=1;" parent="xgb36805R0s2YH3dAti3-17" vertex="1">
          <mxGeometry y="592" width="300" height="26" as="geometry" />
        </mxCell>
        <mxCell id="7sKG46PLj9Gb0CZZyful-13" value="&lt;div&gt;+ getSectionsCount(): int&lt;br&gt;&lt;/div&gt;&lt;div&gt;&lt;span style=&quot;background-color: initial;&quot;&gt;&lt;br&gt;&lt;/span&gt;&lt;/div&gt;" style="text;strokeColor=none;fillColor=none;align=left;verticalAlign=top;spacingLeft=4;spacingRight=4;overflow=hidden;rotatable=0;points=[[0,0.5],[1,0.5]];portConstraint=eastwest;whiteSpace=wrap;html=1;" parent="xgb36805R0s2YH3dAti3-17" vertex="1">
          <mxGeometry y="618" width="300" height="26" as="geometry" />
        </mxCell>
        <mxCell id="7sKG46PLj9Gb0CZZyful-1" value="&lt;div&gt;+ getShortestSection(): Section&lt;br&gt;&lt;/div&gt;&lt;div&gt;&lt;span style=&quot;background-color: initial;&quot;&gt;&lt;br&gt;&lt;/span&gt;&lt;/div&gt;" style="text;strokeColor=none;fillColor=none;align=left;verticalAlign=top;spacingLeft=4;spacingRight=4;overflow=hidden;rotatable=0;points=[[0,0.5],[1,0.5]];portConstraint=eastwest;whiteSpace=wrap;html=1;" parent="xgb36805R0s2YH3dAti3-17" vertex="1">
          <mxGeometry y="644" width="300" height="26" as="geometry" />
        </mxCell>
        <mxCell id="7sKG46PLj9Gb0CZZyful-7" value="&lt;div&gt;+ getLongestSection(): Section&lt;br&gt;&lt;/div&gt;&lt;div&gt;&lt;span style=&quot;background-color: initial;&quot;&gt;&lt;br&gt;&lt;/span&gt;&lt;/div&gt;" style="text;strokeColor=none;fillColor=none;align=left;verticalAlign=top;spacingLeft=4;spacingRight=4;overflow=hidden;rotatable=0;points=[[0,0.5],[1,0.5]];portConstraint=eastwest;whiteSpace=wrap;html=1;" parent="xgb36805R0s2YH3dAti3-17" vertex="1">
          <mxGeometry y="670" width="300" height="26" as="geometry" />
        </mxCell>
        <mxCell id="7sKG46PLj9Gb0CZZyful-20" value="&lt;div&gt;+ getLongestLesson(): List&amp;lt;Lesson&amp;gt;&lt;br&gt;&lt;/div&gt;&lt;div&gt;&lt;span style=&quot;background-color: initial;&quot;&gt;&lt;br&gt;&lt;/span&gt;&lt;/div&gt;" style="text;strokeColor=none;fillColor=none;align=left;verticalAlign=top;spacingLeft=4;spacingRight=4;overflow=hidden;rotatable=0;points=[[0,0.5],[1,0.5]];portConstraint=eastwest;whiteSpace=wrap;html=1;" parent="xgb36805R0s2YH3dAti3-17" vertex="1">
          <mxGeometry y="696" width="300" height="26" as="geometry" />
        </mxCell>
        <mxCell id="7sKG46PLj9Gb0CZZyful-10" value="&lt;div&gt;+ getSectionWithMostLessons(): Section&lt;br&gt;&lt;/div&gt;&lt;div&gt;&lt;span style=&quot;background-color: initial;&quot;&gt;&lt;br&gt;&lt;/span&gt;&lt;/div&gt;" style="text;strokeColor=none;fillColor=none;align=left;verticalAlign=top;spacingLeft=4;spacingRight=4;overflow=hidden;rotatable=0;points=[[0,0.5],[1,0.5]];portConstraint=eastwest;whiteSpace=wrap;html=1;" parent="xgb36805R0s2YH3dAti3-17" vertex="1">
          <mxGeometry y="722" width="300" height="26" as="geometry" />
        </mxCell>
        <mxCell id="ooXeRT3QzYoAa-_337Fk-2" value="&lt;div&gt;&lt;div&gt;+ getSectionWithMostCodingLessons(): Section&lt;/div&gt;&lt;/div&gt;" style="text;strokeColor=none;fillColor=none;align=left;verticalAlign=top;spacingLeft=4;spacingRight=4;overflow=hidden;rotatable=0;points=[[0,0.5],[1,0.5]];portConstraint=eastwest;whiteSpace=wrap;html=1;" vertex="1" parent="xgb36805R0s2YH3dAti3-17">
          <mxGeometry y="748" width="300" height="26" as="geometry" />
        </mxCell>
        <mxCell id="ooXeRT3QzYoAa-_337Fk-3" value="&lt;div&gt;+ getSectionWithMostTheoryLessons(): Section&lt;br&gt;&lt;/div&gt;&lt;div&gt;&lt;br&gt;&lt;/div&gt;" style="text;strokeColor=none;fillColor=none;align=left;verticalAlign=top;spacingLeft=4;spacingRight=4;overflow=hidden;rotatable=0;points=[[0,0.5],[1,0.5]];portConstraint=eastwest;whiteSpace=wrap;html=1;" vertex="1" parent="xgb36805R0s2YH3dAti3-17">
          <mxGeometry y="774" width="300" height="26" as="geometry" />
        </mxCell>
        <mxCell id="ooXeRT3QzYoAa-_337Fk-4" value="&lt;div&gt;+ addNewLesson(): Lesson&lt;br&gt;&lt;/div&gt;&lt;div&gt;&lt;span style=&quot;background-color: initial;&quot;&gt;&lt;br&gt;&lt;/span&gt;&lt;/div&gt;" style="text;strokeColor=none;fillColor=none;align=left;verticalAlign=top;spacingLeft=4;spacingRight=4;overflow=hidden;rotatable=0;points=[[0,0.5],[1,0.5]];portConstraint=eastwest;whiteSpace=wrap;html=1;" vertex="1" parent="xgb36805R0s2YH3dAti3-17">
          <mxGeometry y="800" width="300" height="26" as="geometry" />
        </mxCell>
        <mxCell id="ooXeRT3QzYoAa-_337Fk-5" value="&lt;div&gt;+ removeLesson(): boolean&lt;br&gt;&lt;/div&gt;&lt;div&gt;&lt;span style=&quot;background-color: initial;&quot;&gt;&lt;br&gt;&lt;/span&gt;&lt;/div&gt;" style="text;strokeColor=none;fillColor=none;align=left;verticalAlign=top;spacingLeft=4;spacingRight=4;overflow=hidden;rotatable=0;points=[[0,0.5],[1,0.5]];portConstraint=eastwest;whiteSpace=wrap;html=1;" vertex="1" parent="xgb36805R0s2YH3dAti3-17">
          <mxGeometry y="826" width="300" height="26" as="geometry" />
        </mxCell>
        <mxCell id="ooXeRT3QzYoAa-_337Fk-6" value="&lt;div&gt;+ getLesson(): Lesson&lt;br&gt;&lt;/div&gt;&lt;div&gt;&lt;span style=&quot;background-color: initial;&quot;&gt;&lt;br&gt;&lt;/span&gt;&lt;/div&gt;" style="text;strokeColor=none;fillColor=none;align=left;verticalAlign=top;spacingLeft=4;spacingRight=4;overflow=hidden;rotatable=0;points=[[0,0.5],[1,0.5]];portConstraint=eastwest;whiteSpace=wrap;html=1;" vertex="1" parent="xgb36805R0s2YH3dAti3-17">
          <mxGeometry y="852" width="300" height="26" as="geometry" />
        </mxCell>
        <mxCell id="ooXeRT3QzYoAa-_337Fk-7" value="&lt;div&gt;+ editLessonName(): void&lt;br&gt;&lt;/div&gt;&lt;div&gt;&lt;span style=&quot;background-color: initial;&quot;&gt;&lt;br&gt;&lt;/span&gt;&lt;/div&gt;" style="text;strokeColor=none;fillColor=none;align=left;verticalAlign=top;spacingLeft=4;spacingRight=4;overflow=hidden;rotatable=0;points=[[0,0.5],[1,0.5]];portConstraint=eastwest;whiteSpace=wrap;html=1;" vertex="1" parent="xgb36805R0s2YH3dAti3-17">
          <mxGeometry y="878" width="300" height="26" as="geometry" />
        </mxCell>
        <mxCell id="ooXeRT3QzYoAa-_337Fk-8" value="&lt;div&gt;+ getListOfAllLessons(): List&amp;lt;Lesson&amp;gt;&lt;br&gt;&lt;/div&gt;&lt;div&gt;&lt;span style=&quot;background-color: initial;&quot;&gt;&lt;br&gt;&lt;/span&gt;&lt;/div&gt;" style="text;strokeColor=none;fillColor=none;align=left;verticalAlign=top;spacingLeft=4;spacingRight=4;overflow=hidden;rotatable=0;points=[[0,0.5],[1,0.5]];portConstraint=eastwest;whiteSpace=wrap;html=1;" vertex="1" parent="xgb36805R0s2YH3dAti3-17">
          <mxGeometry y="904" width="300" height="26" as="geometry" />
        </mxCell>
        <mxCell id="ooXeRT3QzYoAa-_337Fk-9" value="&lt;div&gt;+ getLessons(): List&amp;lt;Lesson&amp;gt;&lt;br&gt;&lt;/div&gt;&lt;div&gt;&lt;span style=&quot;background-color: initial;&quot;&gt;&lt;br&gt;&lt;/span&gt;&lt;/div&gt;" style="text;strokeColor=none;fillColor=none;align=left;verticalAlign=top;spacingLeft=4;spacingRight=4;overflow=hidden;rotatable=0;points=[[0,0.5],[1,0.5]];portConstraint=eastwest;whiteSpace=wrap;html=1;" vertex="1" parent="xgb36805R0s2YH3dAti3-17">
          <mxGeometry y="930" width="300" height="26" as="geometry" />
        </mxCell>
        <mxCell id="ooXeRT3QzYoAa-_337Fk-10" value="&lt;div&gt;+ getLessonsWithSameKeyword(): List&amp;lt;Lesson&amp;gt;&lt;br&gt;&lt;/div&gt;&lt;div&gt;&lt;span style=&quot;background-color: initial;&quot;&gt;&lt;br&gt;&lt;/span&gt;&lt;/div&gt;" style="text;strokeColor=none;fillColor=none;align=left;verticalAlign=top;spacingLeft=4;spacingRight=4;overflow=hidden;rotatable=0;points=[[0,0.5],[1,0.5]];portConstraint=eastwest;whiteSpace=wrap;html=1;" vertex="1" parent="xgb36805R0s2YH3dAti3-17">
          <mxGeometry y="956" width="300" height="26" as="geometry" />
        </mxCell>
        <mxCell id="ooXeRT3QzYoAa-_337Fk-11" value="&lt;div&gt;+ getLessonsCount(): int&lt;br&gt;&lt;/div&gt;&lt;div&gt;&lt;br&gt;&lt;/div&gt;" style="text;strokeColor=none;fillColor=none;align=left;verticalAlign=top;spacingLeft=4;spacingRight=4;overflow=hidden;rotatable=0;points=[[0,0.5],[1,0.5]];portConstraint=eastwest;whiteSpace=wrap;html=1;" vertex="1" parent="xgb36805R0s2YH3dAti3-17">
          <mxGeometry y="982" width="300" height="26" as="geometry" />
        </mxCell>
        <mxCell id="xgb36805R0s2YH3dAti3-28" value="CourseFileHandler" style="swimlane;fontStyle=1;align=center;verticalAlign=top;childLayout=stackLayout;horizontal=1;startSize=26;horizontalStack=0;resizeParent=1;resizeParentMax=0;resizeLast=0;collapsible=1;marginBottom=0;whiteSpace=wrap;html=1;" parent="1" vertex="1">
          <mxGeometry x="590" y="1590" width="170" height="214" as="geometry" />
        </mxCell>
        <mxCell id="xgb36805R0s2YH3dAti3-35" value="" style="line;strokeWidth=1;fillColor=none;align=left;verticalAlign=middle;spacingTop=-1;spacingLeft=3;spacingRight=3;rotatable=0;labelPosition=right;points=[];portConstraint=eastwest;strokeColor=inherit;" parent="xgb36805R0s2YH3dAti3-28" vertex="1">
          <mxGeometry y="26" width="170" height="84" as="geometry" />
        </mxCell>
        <mxCell id="xgb36805R0s2YH3dAti3-47" value="+writeCourse():void" style="text;strokeColor=none;fillColor=none;align=left;verticalAlign=top;spacingLeft=4;spacingRight=4;overflow=hidden;rotatable=0;points=[[0,0.5],[1,0.5]];portConstraint=eastwest;whiteSpace=wrap;html=1;" parent="xgb36805R0s2YH3dAti3-28" vertex="1">
          <mxGeometry y="110" width="170" height="26" as="geometry" />
        </mxCell>
        <mxCell id="xgb36805R0s2YH3dAti3-36" value="+readCourse():void" style="text;strokeColor=none;fillColor=none;align=left;verticalAlign=top;spacingLeft=4;spacingRight=4;overflow=hidden;rotatable=0;points=[[0,0.5],[1,0.5]];portConstraint=eastwest;whiteSpace=wrap;html=1;" parent="xgb36805R0s2YH3dAti3-28" vertex="1">
          <mxGeometry y="136" width="170" height="26" as="geometry" />
        </mxCell>
        <mxCell id="ISn-cLbXCTVT3khcro_t-1" value="+listCourseFiles():List&amp;lt;Path&amp;gt;" style="text;strokeColor=none;fillColor=none;align=left;verticalAlign=top;spacingLeft=4;spacingRight=4;overflow=hidden;rotatable=0;points=[[0,0.5],[1,0.5]];portConstraint=eastwest;whiteSpace=wrap;html=1;" vertex="1" parent="xgb36805R0s2YH3dAti3-28">
          <mxGeometry y="162" width="170" height="26" as="geometry" />
        </mxCell>
        <mxCell id="ISn-cLbXCTVT3khcro_t-2" value="+removeCourseFile():boolean" style="text;strokeColor=none;fillColor=none;align=left;verticalAlign=top;spacingLeft=4;spacingRight=4;overflow=hidden;rotatable=0;points=[[0,0.5],[1,0.5]];portConstraint=eastwest;whiteSpace=wrap;html=1;" vertex="1" parent="xgb36805R0s2YH3dAti3-28">
          <mxGeometry y="188" width="170" height="26" as="geometry" />
        </mxCell>
        <mxCell id="7sKG46PLj9Gb0CZZyful-27" style="edgeStyle=orthogonalEdgeStyle;rounded=0;orthogonalLoop=1;jettySize=auto;html=1;exitX=1;exitY=0.5;exitDx=0;exitDy=0;entryX=0;entryY=0.5;entryDx=0;entryDy=0;endArrow=none;endFill=0;" parent="1" source="7sKG46PLj9Gb0CZZyful-12" target="xgb36805R0s2YH3dAti3-28" edge="1">
          <mxGeometry relative="1" as="geometry" />
        </mxCell>
        <mxCell id="7sKG46PLj9Gb0CZZyful-28" value="TheoryLesson" style="swimlane;fontStyle=1;align=center;verticalAlign=top;childLayout=stackLayout;horizontal=1;startSize=26;horizontalStack=0;resizeParent=1;resizeParentMax=0;resizeLast=0;collapsible=1;marginBottom=0;whiteSpace=wrap;html=1;" parent="1" vertex="1">
          <mxGeometry x="420" y="860" width="160" height="130" as="geometry" />
        </mxCell>
        <mxCell id="7sKG46PLj9Gb0CZZyful-32" value="" style="line;strokeWidth=1;fillColor=none;align=left;verticalAlign=middle;spacingTop=-1;spacingLeft=3;spacingRight=3;rotatable=0;labelPosition=right;points=[];portConstraint=eastwest;strokeColor=inherit;" parent="7sKG46PLj9Gb0CZZyful-28" vertex="1">
          <mxGeometry y="26" width="160" height="104" as="geometry" />
        </mxCell>
        <mxCell id="7sKG46PLj9Gb0CZZyful-36" value="CodingLesson" style="swimlane;fontStyle=1;align=center;verticalAlign=top;childLayout=stackLayout;horizontal=1;startSize=26;horizontalStack=0;resizeParent=1;resizeParentMax=0;resizeLast=0;collapsible=1;marginBottom=0;whiteSpace=wrap;html=1;" parent="1" vertex="1">
          <mxGeometry x="620" y="860" width="160" height="130" as="geometry" />
        </mxCell>
        <mxCell id="7sKG46PLj9Gb0CZZyful-40" value="" style="line;strokeWidth=1;fillColor=none;align=left;verticalAlign=middle;spacingTop=-1;spacingLeft=3;spacingRight=3;rotatable=0;labelPosition=right;points=[];portConstraint=eastwest;strokeColor=inherit;" parent="7sKG46PLj9Gb0CZZyful-36" vertex="1">
          <mxGeometry y="26" width="160" height="104" as="geometry" />
        </mxCell>
        <mxCell id="7sKG46PLj9Gb0CZZyful-44" style="edgeStyle=orthogonalEdgeStyle;rounded=0;orthogonalLoop=1;jettySize=auto;html=1;exitX=0.5;exitY=0;exitDx=0;exitDy=0;entryX=0.529;entryY=1.109;entryDx=0;entryDy=0;entryPerimeter=0;" parent="1" source="7sKG46PLj9Gb0CZZyful-28" target="ISn-cLbXCTVT3khcro_t-26" edge="1">
          <mxGeometry relative="1" as="geometry">
            <mxPoint x="713" y="740" as="targetPoint" />
            <Array as="points">
              <mxPoint x="500" y="730" />
              <mxPoint x="715" y="730" />
            </Array>
          </mxGeometry>
        </mxCell>
        <mxCell id="7sKG46PLj9Gb0CZZyful-47" style="rounded=0;orthogonalLoop=1;jettySize=auto;html=1;exitX=0.5;exitY=0;exitDx=0;exitDy=0;edgeStyle=orthogonalEdgeStyle;entryX=0.53;entryY=1.081;entryDx=0;entryDy=0;entryPerimeter=0;" parent="1" source="7sKG46PLj9Gb0CZZyful-36" target="ISn-cLbXCTVT3khcro_t-26" edge="1">
          <mxGeometry relative="1" as="geometry">
            <mxPoint x="690" y="660" as="targetPoint" />
            <Array as="points">
              <mxPoint x="715" y="860" />
            </Array>
          </mxGeometry>
        </mxCell>
        <mxCell id="IKtm-9PmcfcTfvek_hnf-2" style="edgeStyle=orthogonalEdgeStyle;rounded=0;orthogonalLoop=1;jettySize=auto;html=1;exitX=1;exitY=0.5;exitDx=0;exitDy=0;entryX=0;entryY=0.5;entryDx=0;entryDy=0;" parent="1" source="7sKG46PLj9Gb0CZZyful-3" target="xgb36805R0s2YH3dAti3-28" edge="1">
          <mxGeometry relative="1" as="geometry" />
        </mxCell>
        <mxCell id="ISn-cLbXCTVT3khcro_t-21" style="rounded=0;orthogonalLoop=1;jettySize=auto;html=1;exitX=0.5;exitY=0;exitDx=0;exitDy=0;entryX=0.69;entryY=1.026;entryDx=0;entryDy=0;entryPerimeter=0;endArrow=none;endFill=0;" edge="1" parent="1" source="xgb36805R0s2YH3dAti3-17" target="pmKONMikWB3YTbTokbgS-4">
          <mxGeometry relative="1" as="geometry" />
        </mxCell>
        <mxCell id="ooXeRT3QzYoAa-_337Fk-1" value="&lt;div&gt;&lt;br&gt;&lt;/div&gt;" style="text;strokeColor=none;fillColor=none;align=left;verticalAlign=top;spacingLeft=4;spacingRight=4;overflow=hidden;rotatable=0;points=[[0,0.5],[1,0.5]];portConstraint=eastwest;whiteSpace=wrap;html=1;" vertex="1" parent="1">
          <mxGeometry x="410" y="1700" width="330" height="310" as="geometry" />
        </mxCell>
      </root>
    </mxGraphModel>
  </diagram>
  <diagram name="ComponentDiagram" id="OEAdeg_5R2os7QsRh3G8">
    <mxGraphModel dx="686" dy="843" grid="1" gridSize="10" guides="1" tooltips="1" connect="1" arrows="1" fold="1" page="1" pageScale="1" pageWidth="827" pageHeight="1169" math="0" shadow="0">
      <root>
        <mxCell id="0" />
        <mxCell id="1" parent="0" />
        <mxCell id="_DNs9tZNyXvMfFrgB1Bx-1" value="" style="html=1;dropTarget=0;whiteSpace=wrap;fontFamily=Helvetica;fontSize=11;fontColor=default;" parent="1" vertex="1">
          <mxGeometry x="380" y="190" width="910" height="800" as="geometry" />
        </mxCell>
        <mxCell id="W3cwiA8cIqoYBbDZvKbq-1" style="edgeStyle=orthogonalEdgeStyle;rounded=0;orthogonalLoop=1;jettySize=auto;html=1;exitX=1;exitY=0.5;exitDx=0;exitDy=0;endArrow=none;endFill=0;" parent="1" source="_DNs9tZNyXvMfFrgB1Bx-5" target="_DNs9tZNyXvMfFrgB1Bx-12" edge="1">
          <mxGeometry relative="1" as="geometry" />
        </mxCell>
        <mxCell id="_DNs9tZNyXvMfFrgB1Bx-5" value="&lt;p style=&quot;margin:0px;margin-top:6px;text-align:center;&quot;&gt;CourseManager&lt;/p&gt;" style="align=left;overflow=fill;html=1;dropTarget=0;whiteSpace=wrap;" parent="1" vertex="1">
          <mxGeometry x="530" y="410" width="180" height="90" as="geometry" />
        </mxCell>
        <mxCell id="_DNs9tZNyXvMfFrgB1Bx-6" value="" style="shape=component;jettyWidth=8;jettyHeight=4;" parent="_DNs9tZNyXvMfFrgB1Bx-5" vertex="1">
          <mxGeometry x="1" width="20" height="20" relative="1" as="geometry">
            <mxPoint x="-24" y="4" as="offset" />
          </mxGeometry>
        </mxCell>
        <mxCell id="_DNs9tZNyXvMfFrgB1Bx-12" value="&lt;p style=&quot;margin:0px;margin-top:6px;text-align:center;&quot;&gt;Utility&lt;/p&gt;" style="align=left;overflow=fill;html=1;dropTarget=0;whiteSpace=wrap;" parent="1" vertex="1">
          <mxGeometry x="830" y="410" width="210" height="90" as="geometry" />
        </mxCell>
        <mxCell id="_DNs9tZNyXvMfFrgB1Bx-13" value="" style="shape=component;jettyWidth=8;jettyHeight=4;" parent="_DNs9tZNyXvMfFrgB1Bx-12" vertex="1">
          <mxGeometry x="1" width="20" height="20" relative="1" as="geometry">
            <mxPoint x="-24" y="4" as="offset" />
          </mxGeometry>
        </mxCell>
        <mxCell id="_DNs9tZNyXvMfFrgB1Bx-28" value="Course Mangement System" style="text;html=1;align=center;verticalAlign=middle;resizable=0;points=[];autosize=1;strokeColor=none;fillColor=none;fontSize=11;fontFamily=Helvetica;fontColor=default;" parent="1" vertex="1">
          <mxGeometry x="721" y="210" width="160" height="30" as="geometry" />
        </mxCell>
      </root>
    </mxGraphModel>
  </diagram>
  <diagram id="VyuAI8iHSpYGhFaAseuc" name="SequenceDiagram">
    <mxGraphModel dx="860" dy="-4853" grid="1" gridSize="10" guides="1" tooltips="1" connect="1" arrows="1" fold="1" page="1" pageScale="1" pageWidth="827" pageHeight="1169" math="0" shadow="0">
      <root>
        <mxCell id="0" />
        <mxCell id="1" parent="0" />
        <mxCell id="3BcHNFciv0NcY7cNkqBO-55" style="rounded=0;orthogonalLoop=1;jettySize=auto;html=1;exitX=0.5;exitY=0.5;exitDx=0;exitDy=0;exitPerimeter=0;dashed=1;dashPattern=12 12;" edge="1" parent="1" source="NenUaPF9kWP9VeANVjWu-55">
          <mxGeometry relative="1" as="geometry">
            <mxPoint x="920" y="9200" as="targetPoint" />
          </mxGeometry>
        </mxCell>
        <mxCell id="3BcHNFciv0NcY7cNkqBO-49" value="Customer" style="shape=umlActor;verticalLabelPosition=bottom;verticalAlign=top;html=1;" vertex="1" parent="1">
          <mxGeometry x="910" y="5960" width="30" height="60" as="geometry" />
        </mxCell>
        <mxCell id="3BcHNFciv0NcY7cNkqBO-50" value="CourseManager" style="html=1;whiteSpace=wrap;" vertex="1" parent="1">
          <mxGeometry x="1200" y="5960" width="110" height="50" as="geometry" />
        </mxCell>
        <mxCell id="5VSXuOdBo2lK0xsxqcFI-1" value="add course" style="html=1;verticalAlign=bottom;endArrow=block;curved=0;rounded=0;labelBackgroundColor=default;strokeColor=default;align=center;fontFamily=Helvetica;fontSize=11;fontColor=default;shape=connector;" edge="1" parent="1">
          <mxGeometry width="80" relative="1" as="geometry">
            <mxPoint x="932" y="6100" as="sourcePoint" />
            <mxPoint x="1241" y="6100" as="targetPoint" />
          </mxGeometry>
        </mxCell>
        <mxCell id="5VSXuOdBo2lK0xsxqcFI-2" value="showing menu" style="html=1;verticalAlign=bottom;endArrow=none;curved=0;rounded=0;labelBackgroundColor=default;strokeColor=default;align=center;fontFamily=Helvetica;fontSize=11;fontColor=default;shape=connector;startArrow=block;startFill=1;endFill=0;" edge="1" parent="1">
          <mxGeometry width="80" relative="1" as="geometry">
            <mxPoint x="932" y="6060" as="sourcePoint" />
            <mxPoint x="1241" y="6060" as="targetPoint" />
          </mxGeometry>
        </mxCell>
        <mxCell id="5VSXuOdBo2lK0xsxqcFI-5" value="course added" style="html=1;verticalAlign=bottom;endArrow=none;curved=0;rounded=0;labelBackgroundColor=default;strokeColor=default;align=center;fontFamily=Helvetica;fontSize=11;fontColor=default;shape=connector;startArrow=block;startFill=1;endFill=0;dashed=1;dashPattern=8 8;" edge="1" parent="1">
          <mxGeometry width="80" relative="1" as="geometry">
            <mxPoint x="931.5" y="6320" as="sourcePoint" />
            <mxPoint x="1240.5" y="6320" as="targetPoint" />
          </mxGeometry>
        </mxCell>
        <mxCell id="lnAQlj0hAPMsv6bj4zwi-1" value="list course" style="html=1;verticalAlign=bottom;endArrow=block;curved=0;rounded=0;labelBackgroundColor=default;strokeColor=default;align=center;fontFamily=Helvetica;fontSize=11;fontColor=default;shape=connector;" edge="1" parent="1">
          <mxGeometry width="80" relative="1" as="geometry">
            <mxPoint x="932" y="6380" as="sourcePoint" />
            <mxPoint x="1241" y="6380" as="targetPoint" />
          </mxGeometry>
        </mxCell>
        <mxCell id="lnAQlj0hAPMsv6bj4zwi-2" value="edit course name" style="html=1;verticalAlign=bottom;endArrow=block;curved=0;rounded=0;labelBackgroundColor=default;strokeColor=default;align=center;fontFamily=Helvetica;fontSize=11;fontColor=default;shape=connector;" edge="1" parent="1">
          <mxGeometry x="0.0018" width="80" relative="1" as="geometry">
            <mxPoint x="932" y="6490" as="sourcePoint" />
            <mxPoint x="1241" y="6490" as="targetPoint" />
            <mxPoint as="offset" />
          </mxGeometry>
        </mxCell>
        <mxCell id="lnAQlj0hAPMsv6bj4zwi-3" value="course list" style="html=1;verticalAlign=bottom;endArrow=none;curved=0;rounded=0;labelBackgroundColor=default;strokeColor=default;align=center;fontFamily=Helvetica;fontSize=11;fontColor=default;shape=connector;startArrow=block;startFill=1;endFill=0;dashed=1;dashPattern=8 8;" edge="1" parent="1">
          <mxGeometry width="80" relative="1" as="geometry">
            <mxPoint x="932" y="6420" as="sourcePoint" />
            <mxPoint x="1241" y="6420" as="targetPoint" />
          </mxGeometry>
        </mxCell>
        <mxCell id="1R_N0nEzyaUX5FgYIhtD-1" value="course name changed" style="html=1;verticalAlign=bottom;endArrow=none;curved=0;rounded=0;labelBackgroundColor=default;strokeColor=default;align=center;fontFamily=Helvetica;fontSize=11;fontColor=default;shape=connector;startArrow=block;startFill=1;endFill=0;dashed=1;dashPattern=8 8;" edge="1" parent="1">
          <mxGeometry width="80" relative="1" as="geometry">
            <mxPoint x="932" y="6690" as="sourcePoint" />
            <mxPoint x="1241" y="6690" as="targetPoint" />
          </mxGeometry>
        </mxCell>
        <mxCell id="1R_N0nEzyaUX5FgYIhtD-2" value="total number of courses" style="html=1;verticalAlign=bottom;endArrow=block;curved=0;rounded=0;labelBackgroundColor=default;strokeColor=default;align=center;fontFamily=Helvetica;fontSize=11;fontColor=default;shape=connector;" edge="1" parent="1" source="NenUaPF9kWP9VeANVjWu-65">
          <mxGeometry x="0.0018" width="80" relative="1" as="geometry">
            <mxPoint x="932" y="6770" as="sourcePoint" />
            <mxPoint x="1241" y="6770" as="targetPoint" />
            <mxPoint as="offset" />
          </mxGeometry>
        </mxCell>
        <mxCell id="1R_N0nEzyaUX5FgYIhtD-3" value="course count" style="html=1;verticalAlign=bottom;endArrow=none;curved=0;rounded=0;labelBackgroundColor=default;strokeColor=default;align=center;fontFamily=Helvetica;fontSize=11;fontColor=default;shape=connector;startArrow=block;startFill=1;endFill=0;dashed=1;dashPattern=8 8;" edge="1" parent="1">
          <mxGeometry width="80" relative="1" as="geometry">
            <mxPoint x="932" y="6810" as="sourcePoint" />
            <mxPoint x="1241" y="6810" as="targetPoint" />
          </mxGeometry>
        </mxCell>
        <mxCell id="NenUaPF9kWP9VeANVjWu-1" value="add section" style="html=1;verticalAlign=bottom;endArrow=block;curved=0;rounded=0;labelBackgroundColor=default;strokeColor=default;align=center;fontFamily=Helvetica;fontSize=11;fontColor=default;shape=connector;" edge="1" parent="1">
          <mxGeometry x="0.0018" width="80" relative="1" as="geometry">
            <mxPoint x="932" y="6900" as="sourcePoint" />
            <mxPoint x="1241" y="6900" as="targetPoint" />
            <mxPoint as="offset" />
          </mxGeometry>
        </mxCell>
        <mxCell id="NenUaPF9kWP9VeANVjWu-2" value="select course (no.) from this course list" style="html=1;verticalAlign=bottom;endArrow=none;curved=0;rounded=0;labelBackgroundColor=default;strokeColor=default;align=center;fontFamily=Helvetica;fontSize=11;fontColor=default;shape=connector;startArrow=block;startFill=1;endFill=0;" edge="1" parent="1">
          <mxGeometry x="0.0018" width="80" relative="1" as="geometry">
            <mxPoint x="931.5" y="7060" as="sourcePoint" />
            <mxPoint x="1240.5" y="7060" as="targetPoint" />
            <mxPoint as="offset" />
          </mxGeometry>
        </mxCell>
        <mxCell id="NenUaPF9kWP9VeANVjWu-3" value="course (no.)" style="html=1;verticalAlign=bottom;endArrow=block;curved=0;rounded=0;labelBackgroundColor=default;strokeColor=default;align=center;fontFamily=Helvetica;fontSize=11;fontColor=default;shape=connector;" edge="1" parent="1">
          <mxGeometry x="0.0018" width="80" relative="1" as="geometry">
            <mxPoint x="931.5" y="7100" as="sourcePoint" />
            <mxPoint x="1240.5" y="7100" as="targetPoint" />
            <mxPoint as="offset" />
          </mxGeometry>
        </mxCell>
        <mxCell id="NenUaPF9kWP9VeANVjWu-6" value="section added to the course" style="html=1;verticalAlign=bottom;endArrow=none;curved=0;rounded=0;labelBackgroundColor=default;strokeColor=default;align=center;fontFamily=Helvetica;fontSize=11;fontColor=default;shape=connector;startArrow=block;startFill=1;endFill=0;dashed=1;dashPattern=8 8;" edge="1" parent="1">
          <mxGeometry x="0.0018" width="80" relative="1" as="geometry">
            <mxPoint x="932" y="7170" as="sourcePoint" />
            <mxPoint x="1241" y="7170" as="targetPoint" />
            <mxPoint as="offset" />
          </mxGeometry>
        </mxCell>
        <mxCell id="NenUaPF9kWP9VeANVjWu-7" value="section no. and title" style="html=1;verticalAlign=bottom;endArrow=block;curved=0;rounded=0;labelBackgroundColor=default;strokeColor=default;align=center;fontFamily=Helvetica;fontSize=11;fontColor=default;shape=connector;" edge="1" parent="1">
          <mxGeometry x="0.0018" width="80" relative="1" as="geometry">
            <mxPoint x="931" y="6981" as="sourcePoint" />
            <mxPoint x="1240" y="6981" as="targetPoint" />
            <mxPoint as="offset" />
          </mxGeometry>
        </mxCell>
        <mxCell id="NenUaPF9kWP9VeANVjWu-9" value="enter section no. and title" style="html=1;verticalAlign=bottom;endArrow=none;curved=0;rounded=0;labelBackgroundColor=default;strokeColor=default;align=center;fontFamily=Helvetica;fontSize=11;fontColor=default;shape=connector;startArrow=block;startFill=1;endFill=0;" edge="1" parent="1">
          <mxGeometry x="0.0018" width="80" relative="1" as="geometry">
            <mxPoint x="932" y="6941" as="sourcePoint" />
            <mxPoint x="1241" y="6941" as="targetPoint" />
            <mxPoint as="offset" />
          </mxGeometry>
        </mxCell>
        <mxCell id="NenUaPF9kWP9VeANVjWu-45" value="" style="rounded=0;orthogonalLoop=1;jettySize=auto;html=1;exitX=0.5;exitY=1;exitDx=0;exitDy=0;dashed=1;dashPattern=12 12;endArrow=classic;endFill=1;" edge="1" parent="1" source="NenUaPF9kWP9VeANVjWu-46">
          <mxGeometry relative="1" as="geometry">
            <mxPoint x="1260" y="9202.857142857143" as="targetPoint" />
            <mxPoint x="1255" y="6140" as="sourcePoint" />
          </mxGeometry>
        </mxCell>
        <mxCell id="NenUaPF9kWP9VeANVjWu-47" value="" style="rounded=0;orthogonalLoop=1;jettySize=auto;html=1;exitX=0.5;exitY=1;exitDx=0;exitDy=0;dashed=1;dashPattern=12 12;endArrow=none;endFill=0;" edge="1" parent="1" source="NenUaPF9kWP9VeANVjWu-49" target="NenUaPF9kWP9VeANVjWu-46">
          <mxGeometry relative="1" as="geometry">
            <mxPoint x="1255" y="6660" as="targetPoint" />
            <mxPoint x="1255" y="6200" as="sourcePoint" />
          </mxGeometry>
        </mxCell>
        <mxCell id="NenUaPF9kWP9VeANVjWu-46" value="" style="html=1;points=[[0,0,0,0,5],[0,1,0,0,-5],[1,0,0,0,5],[1,1,0,0,-5]];perimeter=orthogonalPerimeter;outlineConnect=0;targetShapes=umlLifeline;portConstraint=eastwest;newEdgeStyle={&quot;curved&quot;:0,&quot;rounded&quot;:0};fontFamily=Helvetica;fontSize=11;fontColor=default;" vertex="1" parent="1">
          <mxGeometry x="1250" y="6770" width="10" height="40" as="geometry" />
        </mxCell>
        <mxCell id="NenUaPF9kWP9VeANVjWu-50" value="" style="rounded=0;orthogonalLoop=1;jettySize=auto;html=1;exitX=0.5;exitY=1;exitDx=0;exitDy=0;dashed=1;dashPattern=12 12;endArrow=none;endFill=0;" edge="1" parent="1" source="NenUaPF9kWP9VeANVjWu-57" target="NenUaPF9kWP9VeANVjWu-49">
          <mxGeometry relative="1" as="geometry">
            <mxPoint x="1255" y="6530" as="targetPoint" />
            <mxPoint x="1255" y="6200" as="sourcePoint" />
          </mxGeometry>
        </mxCell>
        <mxCell id="NenUaPF9kWP9VeANVjWu-49" value="" style="html=1;points=[[0,0,0,0,5],[0,1,0,0,-5],[1,0,0,0,5],[1,1,0,0,-5]];perimeter=orthogonalPerimeter;outlineConnect=0;targetShapes=umlLifeline;portConstraint=eastwest;newEdgeStyle={&quot;curved&quot;:0,&quot;rounded&quot;:0};fontFamily=Helvetica;fontSize=11;fontColor=default;" vertex="1" parent="1">
          <mxGeometry x="1250" y="6490" width="10" height="200" as="geometry" />
        </mxCell>
        <mxCell id="NenUaPF9kWP9VeANVjWu-51" value="&amp;nbsp;course (no.)" style="html=1;verticalAlign=bottom;endArrow=block;curved=0;rounded=0;labelBackgroundColor=default;strokeColor=default;align=center;fontFamily=Helvetica;fontSize=11;fontColor=default;shape=connector;" edge="1" parent="1">
          <mxGeometry width="80" relative="1" as="geometry">
            <mxPoint x="932" y="6570" as="sourcePoint" />
            <mxPoint x="1241" y="6570" as="targetPoint" />
          </mxGeometry>
        </mxCell>
        <mxCell id="NenUaPF9kWP9VeANVjWu-52" value="select course (no.) from this list" style="html=1;verticalAlign=bottom;endArrow=none;curved=0;rounded=0;labelBackgroundColor=default;strokeColor=default;align=center;fontFamily=Helvetica;fontSize=11;fontColor=default;shape=connector;startArrow=block;startFill=1;endFill=0;" edge="1" parent="1">
          <mxGeometry x="0.0032" width="80" relative="1" as="geometry">
            <mxPoint x="932" y="6530" as="sourcePoint" />
            <mxPoint x="1241" y="6530" as="targetPoint" />
            <mxPoint as="offset" />
          </mxGeometry>
        </mxCell>
        <mxCell id="NenUaPF9kWP9VeANVjWu-53" value="enter new course name" style="html=1;verticalAlign=bottom;endArrow=none;curved=0;rounded=0;labelBackgroundColor=default;strokeColor=default;align=center;fontFamily=Helvetica;fontSize=11;fontColor=default;shape=connector;startArrow=block;startFill=1;endFill=0;" edge="1" parent="1">
          <mxGeometry x="0.0032" width="80" relative="1" as="geometry">
            <mxPoint x="932" y="6610" as="sourcePoint" />
            <mxPoint x="1241" y="6610" as="targetPoint" />
            <mxPoint as="offset" />
          </mxGeometry>
        </mxCell>
        <mxCell id="NenUaPF9kWP9VeANVjWu-54" value="course name" style="html=1;verticalAlign=bottom;endArrow=block;curved=0;rounded=0;labelBackgroundColor=default;strokeColor=default;align=center;fontFamily=Helvetica;fontSize=11;fontColor=default;shape=connector;" edge="1" parent="1">
          <mxGeometry width="80" relative="1" as="geometry">
            <mxPoint x="930" y="6650" as="sourcePoint" />
            <mxPoint x="1239" y="6650" as="targetPoint" />
          </mxGeometry>
        </mxCell>
        <mxCell id="NenUaPF9kWP9VeANVjWu-56" value="" style="rounded=0;orthogonalLoop=1;jettySize=auto;html=1;exitX=0.5;exitY=0.5;exitDx=0;exitDy=0;exitPerimeter=0;dashed=1;dashPattern=12 12;endArrow=none;endFill=0;" edge="1" parent="1" source="NenUaPF9kWP9VeANVjWu-59" target="NenUaPF9kWP9VeANVjWu-55">
          <mxGeometry relative="1" as="geometry">
            <mxPoint x="925" y="7980" as="targetPoint" />
            <mxPoint x="925" y="6180" as="sourcePoint" />
          </mxGeometry>
        </mxCell>
        <mxCell id="NenUaPF9kWP9VeANVjWu-55" value="" style="html=1;points=[[0,0,0,0,5],[0,1,0,0,-5],[1,0,0,0,5],[1,1,0,0,-5]];perimeter=orthogonalPerimeter;outlineConnect=0;targetShapes=umlLifeline;portConstraint=eastwest;newEdgeStyle={&quot;curved&quot;:0,&quot;rounded&quot;:0};fontFamily=Helvetica;fontSize=11;fontColor=default;" vertex="1" parent="1">
          <mxGeometry x="920" y="6490" width="10" height="200" as="geometry" />
        </mxCell>
        <mxCell id="NenUaPF9kWP9VeANVjWu-58" value="" style="rounded=0;orthogonalLoop=1;jettySize=auto;html=1;exitX=0.5;exitY=1;exitDx=0;exitDy=0;dashed=1;dashPattern=12 12;endArrow=none;endFill=0;" edge="1" parent="1" source="NenUaPF9kWP9VeANVjWu-63" target="NenUaPF9kWP9VeANVjWu-57">
          <mxGeometry relative="1" as="geometry">
            <mxPoint x="1255" y="6280" as="targetPoint" />
            <mxPoint x="1255" y="6010" as="sourcePoint" />
          </mxGeometry>
        </mxCell>
        <mxCell id="NenUaPF9kWP9VeANVjWu-57" value="" style="html=1;points=[[0,0,0,0,5],[0,1,0,0,-5],[1,0,0,0,5],[1,1,0,0,-5]];perimeter=orthogonalPerimeter;outlineConnect=0;targetShapes=umlLifeline;portConstraint=eastwest;newEdgeStyle={&quot;curved&quot;:0,&quot;rounded&quot;:0};fontFamily=Helvetica;fontSize=11;fontColor=default;" vertex="1" parent="1">
          <mxGeometry x="1250" y="6380" width="10" height="40" as="geometry" />
        </mxCell>
        <mxCell id="NenUaPF9kWP9VeANVjWu-60" value="" style="rounded=0;orthogonalLoop=1;jettySize=auto;html=1;exitX=0.5;exitY=0.5;exitDx=0;exitDy=0;exitPerimeter=0;dashed=1;dashPattern=12 12;endArrow=none;endFill=0;" edge="1" parent="1" source="NenUaPF9kWP9VeANVjWu-61" target="NenUaPF9kWP9VeANVjWu-59">
          <mxGeometry relative="1" as="geometry">
            <mxPoint x="925" y="6300" as="targetPoint" />
            <mxPoint x="925" y="5990" as="sourcePoint" />
          </mxGeometry>
        </mxCell>
        <mxCell id="NenUaPF9kWP9VeANVjWu-59" value="" style="html=1;points=[[0,0,0,0,5],[0,1,0,0,-5],[1,0,0,0,5],[1,1,0,0,-5]];perimeter=orthogonalPerimeter;outlineConnect=0;targetShapes=umlLifeline;portConstraint=eastwest;newEdgeStyle={&quot;curved&quot;:0,&quot;rounded&quot;:0};fontFamily=Helvetica;fontSize=11;fontColor=default;" vertex="1" parent="1">
          <mxGeometry x="920" y="6380" width="10" height="40" as="geometry" />
        </mxCell>
        <mxCell id="NenUaPF9kWP9VeANVjWu-62" value="" style="rounded=0;orthogonalLoop=1;jettySize=auto;html=1;exitX=0.5;exitY=0.5;exitDx=0;exitDy=0;exitPerimeter=0;dashed=1;dashPattern=12 12;endArrow=none;endFill=0;" edge="1" parent="1" source="3BcHNFciv0NcY7cNkqBO-49" target="NenUaPF9kWP9VeANVjWu-61">
          <mxGeometry relative="1" as="geometry">
            <mxPoint x="925" y="6190" as="targetPoint" />
            <mxPoint x="925" y="5990" as="sourcePoint" />
          </mxGeometry>
        </mxCell>
        <mxCell id="NenUaPF9kWP9VeANVjWu-61" value="" style="html=1;points=[[0,0,0,0,5],[0,1,0,0,-5],[1,0,0,0,5],[1,1,0,0,-5]];perimeter=orthogonalPerimeter;outlineConnect=0;targetShapes=umlLifeline;portConstraint=eastwest;newEdgeStyle={&quot;curved&quot;:0,&quot;rounded&quot;:0};fontFamily=Helvetica;fontSize=11;fontColor=default;" vertex="1" parent="1">
          <mxGeometry x="920" y="6060" width="10" height="260" as="geometry" />
        </mxCell>
        <mxCell id="NenUaPF9kWP9VeANVjWu-64" value="" style="rounded=0;orthogonalLoop=1;jettySize=auto;html=1;exitX=0.5;exitY=1;exitDx=0;exitDy=0;dashed=1;dashPattern=12 12;endArrow=none;endFill=0;" edge="1" parent="1" source="3BcHNFciv0NcY7cNkqBO-50" target="NenUaPF9kWP9VeANVjWu-63">
          <mxGeometry relative="1" as="geometry">
            <mxPoint x="1255" y="6190" as="targetPoint" />
            <mxPoint x="1255" y="6010" as="sourcePoint" />
          </mxGeometry>
        </mxCell>
        <mxCell id="NenUaPF9kWP9VeANVjWu-63" value="" style="html=1;points=[[0,0,0,0,5],[0,1,0,0,-5],[1,0,0,0,5],[1,1,0,0,-5]];perimeter=orthogonalPerimeter;outlineConnect=0;targetShapes=umlLifeline;portConstraint=eastwest;newEdgeStyle={&quot;curved&quot;:0,&quot;rounded&quot;:0};fontFamily=Helvetica;fontSize=11;fontColor=default;" vertex="1" parent="1">
          <mxGeometry x="1250" y="6060" width="10" height="260" as="geometry" />
        </mxCell>
        <mxCell id="NenUaPF9kWP9VeANVjWu-65" value="" style="html=1;points=[[0,0,0,0,5],[0,1,0,0,-5],[1,0,0,0,5],[1,1,0,0,-5]];perimeter=orthogonalPerimeter;outlineConnect=0;targetShapes=umlLifeline;portConstraint=eastwest;newEdgeStyle={&quot;curved&quot;:0,&quot;rounded&quot;:0};fontFamily=Helvetica;fontSize=11;fontColor=default;" vertex="1" parent="1">
          <mxGeometry x="920" y="6770" width="10" height="40" as="geometry" />
        </mxCell>
        <mxCell id="NenUaPF9kWP9VeANVjWu-69" value="" style="html=1;verticalAlign=bottom;endArrow=block;curved=0;rounded=0;labelBackgroundColor=default;strokeColor=default;align=center;fontFamily=Helvetica;fontSize=11;fontColor=default;shape=connector;" edge="1" target="NenUaPF9kWP9VeANVjWu-70" parent="1">
          <mxGeometry x="0.0018" width="80" relative="1" as="geometry">
            <mxPoint x="932" y="6900" as="sourcePoint" />
            <mxPoint x="1241" y="6900" as="targetPoint" />
            <mxPoint as="offset" />
          </mxGeometry>
        </mxCell>
        <mxCell id="NenUaPF9kWP9VeANVjWu-70" value="" style="html=1;points=[[0,0,0,0,5],[0,1,0,0,-5],[1,0,0,0,5],[1,1,0,0,-5]];perimeter=orthogonalPerimeter;outlineConnect=0;targetShapes=umlLifeline;portConstraint=eastwest;newEdgeStyle={&quot;curved&quot;:0,&quot;rounded&quot;:0};fontFamily=Helvetica;fontSize=11;fontColor=default;" vertex="1" parent="1">
          <mxGeometry x="920" y="6900" width="10" height="270" as="geometry" />
        </mxCell>
        <mxCell id="NenUaPF9kWP9VeANVjWu-71" value="" style="html=1;points=[[0,0,0,0,5],[0,1,0,0,-5],[1,0,0,0,5],[1,1,0,0,-5]];perimeter=orthogonalPerimeter;outlineConnect=0;targetShapes=umlLifeline;portConstraint=eastwest;newEdgeStyle={&quot;curved&quot;:0,&quot;rounded&quot;:0};fontFamily=Helvetica;fontSize=11;fontColor=default;" vertex="1" parent="1">
          <mxGeometry x="1250" y="6900" width="10" height="270" as="geometry" />
        </mxCell>
        <mxCell id="vWtSML5i78ayb0-1tLLp-1" value="edit course name" style="html=1;verticalAlign=bottom;endArrow=block;curved=0;rounded=0;labelBackgroundColor=default;strokeColor=default;align=center;fontFamily=Helvetica;fontSize=11;fontColor=default;shape=connector;" edge="1" parent="1">
          <mxGeometry x="0.0018" width="80" relative="1" as="geometry">
            <mxPoint x="932" y="7640" as="sourcePoint" />
            <mxPoint x="1241" y="7640" as="targetPoint" />
            <mxPoint as="offset" />
          </mxGeometry>
        </mxCell>
        <mxCell id="vWtSML5i78ayb0-1tLLp-2" value="section&amp;nbsp;name changed" style="html=1;verticalAlign=bottom;endArrow=none;curved=0;rounded=0;labelBackgroundColor=default;strokeColor=default;align=center;fontFamily=Helvetica;fontSize=11;fontColor=default;shape=connector;startArrow=block;startFill=1;endFill=0;dashed=1;dashPattern=8 8;" edge="1" parent="1">
          <mxGeometry width="80" relative="1" as="geometry">
            <mxPoint x="932" y="7930" as="sourcePoint" />
            <mxPoint x="1241" y="7930" as="targetPoint" />
          </mxGeometry>
        </mxCell>
        <mxCell id="vWtSML5i78ayb0-1tLLp-3" value="" style="html=1;points=[[0,0,0,0,5],[0,1,0,0,-5],[1,0,0,0,5],[1,1,0,0,-5]];perimeter=orthogonalPerimeter;outlineConnect=0;targetShapes=umlLifeline;portConstraint=eastwest;newEdgeStyle={&quot;curved&quot;:0,&quot;rounded&quot;:0};fontFamily=Helvetica;fontSize=11;fontColor=default;" vertex="1" parent="1">
          <mxGeometry x="1250" y="7640" width="10" height="290" as="geometry" />
        </mxCell>
        <mxCell id="vWtSML5i78ayb0-1tLLp-4" value="&amp;nbsp;course (no.)" style="html=1;verticalAlign=bottom;endArrow=block;curved=0;rounded=0;labelBackgroundColor=default;strokeColor=default;align=center;fontFamily=Helvetica;fontSize=11;fontColor=default;shape=connector;" edge="1" parent="1">
          <mxGeometry width="80" relative="1" as="geometry">
            <mxPoint x="932" y="7720" as="sourcePoint" />
            <mxPoint x="1241" y="7720" as="targetPoint" />
          </mxGeometry>
        </mxCell>
        <mxCell id="vWtSML5i78ayb0-1tLLp-5" value="select course (no.) from this list" style="html=1;verticalAlign=bottom;endArrow=none;curved=0;rounded=0;labelBackgroundColor=default;strokeColor=default;align=center;fontFamily=Helvetica;fontSize=11;fontColor=default;shape=connector;startArrow=block;startFill=1;endFill=0;" edge="1" parent="1">
          <mxGeometry x="0.0032" width="80" relative="1" as="geometry">
            <mxPoint x="932" y="7680" as="sourcePoint" />
            <mxPoint x="1241" y="7680" as="targetPoint" />
            <mxPoint as="offset" />
          </mxGeometry>
        </mxCell>
        <mxCell id="vWtSML5i78ayb0-1tLLp-6" value="enter new section name" style="html=1;verticalAlign=bottom;endArrow=none;curved=0;rounded=0;labelBackgroundColor=default;strokeColor=default;align=center;fontFamily=Helvetica;fontSize=11;fontColor=default;shape=connector;startArrow=block;startFill=1;endFill=0;" edge="1" parent="1">
          <mxGeometry x="0.0032" width="80" relative="1" as="geometry">
            <mxPoint x="932" y="7850" as="sourcePoint" />
            <mxPoint x="1241" y="7850" as="targetPoint" />
            <mxPoint as="offset" />
          </mxGeometry>
        </mxCell>
        <mxCell id="vWtSML5i78ayb0-1tLLp-7" value="section name" style="html=1;verticalAlign=bottom;endArrow=block;curved=0;rounded=0;labelBackgroundColor=default;strokeColor=default;align=center;fontFamily=Helvetica;fontSize=11;fontColor=default;shape=connector;" edge="1" parent="1">
          <mxGeometry width="80" relative="1" as="geometry">
            <mxPoint x="930" y="7890" as="sourcePoint" />
            <mxPoint x="1239" y="7890" as="targetPoint" />
          </mxGeometry>
        </mxCell>
        <mxCell id="vWtSML5i78ayb0-1tLLp-8" value="" style="html=1;points=[[0,0,0,0,5],[0,1,0,0,-5],[1,0,0,0,5],[1,1,0,0,-5]];perimeter=orthogonalPerimeter;outlineConnect=0;targetShapes=umlLifeline;portConstraint=eastwest;newEdgeStyle={&quot;curved&quot;:0,&quot;rounded&quot;:0};fontFamily=Helvetica;fontSize=11;fontColor=default;" vertex="1" parent="1">
          <mxGeometry x="920" y="7640" width="10" height="290" as="geometry" />
        </mxCell>
        <mxCell id="vWtSML5i78ayb0-1tLLp-9" value="&amp;nbsp;section (no.)" style="html=1;verticalAlign=bottom;endArrow=block;curved=0;rounded=0;labelBackgroundColor=default;strokeColor=default;align=center;fontFamily=Helvetica;fontSize=11;fontColor=default;shape=connector;" edge="1" parent="1">
          <mxGeometry width="80" relative="1" as="geometry">
            <mxPoint x="931.5" y="7800" as="sourcePoint" />
            <mxPoint x="1240.5" y="7800" as="targetPoint" />
          </mxGeometry>
        </mxCell>
        <mxCell id="vWtSML5i78ayb0-1tLLp-10" value="select section (no.) from this list" style="html=1;verticalAlign=bottom;endArrow=none;curved=0;rounded=0;labelBackgroundColor=default;strokeColor=default;align=center;fontFamily=Helvetica;fontSize=11;fontColor=default;shape=connector;startArrow=block;startFill=1;endFill=0;" edge="1" parent="1">
          <mxGeometry x="0.0032" width="80" relative="1" as="geometry">
            <mxPoint x="931.5" y="7760" as="sourcePoint" />
            <mxPoint x="1240.5" y="7760" as="targetPoint" />
            <mxPoint as="offset" />
          </mxGeometry>
        </mxCell>
        <mxCell id="uwaND6BC8r1rGY1EPm4n-1" value="course (no.)" style="html=1;verticalAlign=bottom;endArrow=block;curved=0;rounded=0;labelBackgroundColor=default;strokeColor=default;align=center;fontFamily=Helvetica;fontSize=11;fontColor=default;shape=connector;" edge="1" parent="1">
          <mxGeometry width="80" relative="1" as="geometry">
            <mxPoint x="932" y="6190" as="sourcePoint" />
            <mxPoint x="1241" y="6190" as="targetPoint" />
          </mxGeometry>
        </mxCell>
        <mxCell id="uwaND6BC8r1rGY1EPm4n-2" value="enter course (no.)" style="html=1;verticalAlign=bottom;endArrow=none;curved=0;rounded=0;labelBackgroundColor=default;strokeColor=default;align=center;fontFamily=Helvetica;fontSize=11;fontColor=default;shape=connector;startArrow=block;startFill=1;endFill=0;" edge="1" parent="1">
          <mxGeometry x="-0.0006" width="80" relative="1" as="geometry">
            <mxPoint x="932" y="6150" as="sourcePoint" />
            <mxPoint x="1241" y="6150" as="targetPoint" />
            <mxPoint as="offset" />
          </mxGeometry>
        </mxCell>
        <mxCell id="uwaND6BC8r1rGY1EPm4n-5" value="course name" style="html=1;verticalAlign=bottom;endArrow=block;curved=0;rounded=0;labelBackgroundColor=default;strokeColor=default;align=center;fontFamily=Helvetica;fontSize=11;fontColor=default;shape=connector;" edge="1" parent="1">
          <mxGeometry width="80" relative="1" as="geometry">
            <mxPoint x="930" y="6270" as="sourcePoint" />
            <mxPoint x="1239" y="6270" as="targetPoint" />
          </mxGeometry>
        </mxCell>
        <mxCell id="uwaND6BC8r1rGY1EPm4n-6" value="enter course name" style="html=1;verticalAlign=bottom;endArrow=none;curved=0;rounded=0;labelBackgroundColor=default;strokeColor=default;align=center;fontFamily=Helvetica;fontSize=11;fontColor=default;shape=connector;startArrow=block;startFill=1;endFill=0;" edge="1" parent="1">
          <mxGeometry width="80" relative="1" as="geometry">
            <mxPoint x="930" y="6230" as="sourcePoint" />
            <mxPoint x="1239" y="6230" as="targetPoint" />
          </mxGeometry>
        </mxCell>
        <mxCell id="uwaND6BC8r1rGY1EPm4n-7" value="write course to file" style="html=1;verticalAlign=bottom;endArrow=block;curved=0;rounded=0;labelBackgroundColor=default;strokeColor=default;align=center;fontFamily=Helvetica;fontSize=11;fontColor=default;shape=connector;" edge="1" parent="1">
          <mxGeometry x="0.0018" width="80" relative="1" as="geometry">
            <mxPoint x="932" y="8520" as="sourcePoint" />
            <mxPoint x="1241" y="8520" as="targetPoint" />
            <mxPoint as="offset" />
          </mxGeometry>
        </mxCell>
        <mxCell id="uwaND6BC8r1rGY1EPm4n-8" value="course written to file" style="html=1;verticalAlign=bottom;endArrow=none;curved=0;rounded=0;labelBackgroundColor=default;strokeColor=default;align=center;fontFamily=Helvetica;fontSize=11;fontColor=default;shape=connector;startArrow=block;startFill=1;endFill=0;dashed=1;dashPattern=8 8;" edge="1" parent="1">
          <mxGeometry width="80" relative="1" as="geometry">
            <mxPoint x="940" y="8730" as="sourcePoint" />
            <mxPoint x="1250" y="8730" as="targetPoint" />
          </mxGeometry>
        </mxCell>
        <mxCell id="uwaND6BC8r1rGY1EPm4n-9" value="" style="html=1;points=[[0,0,0,0,5],[0,1,0,0,-5],[1,0,0,0,5],[1,1,0,0,-5]];perimeter=orthogonalPerimeter;outlineConnect=0;targetShapes=umlLifeline;portConstraint=eastwest;newEdgeStyle={&quot;curved&quot;:0,&quot;rounded&quot;:0};fontFamily=Helvetica;fontSize=11;fontColor=default;" vertex="1" parent="1">
          <mxGeometry x="1250" y="8520" width="10" height="210" as="geometry" />
        </mxCell>
        <mxCell id="uwaND6BC8r1rGY1EPm4n-10" value="course (no.)" style="html=1;verticalAlign=bottom;endArrow=block;curved=0;rounded=0;labelBackgroundColor=default;strokeColor=default;align=center;fontFamily=Helvetica;fontSize=11;fontColor=default;shape=connector;" edge="1" parent="1">
          <mxGeometry width="80" relative="1" as="geometry">
            <mxPoint x="932" y="8600" as="sourcePoint" />
            <mxPoint x="1241" y="8600" as="targetPoint" />
          </mxGeometry>
        </mxCell>
        <mxCell id="uwaND6BC8r1rGY1EPm4n-11" value="select course (no.)" style="html=1;verticalAlign=bottom;endArrow=none;curved=0;rounded=0;labelBackgroundColor=default;strokeColor=default;align=center;fontFamily=Helvetica;fontSize=11;fontColor=default;shape=connector;startArrow=block;startFill=1;endFill=0;" edge="1" parent="1">
          <mxGeometry x="0.0032" width="80" relative="1" as="geometry">
            <mxPoint x="932" y="8560" as="sourcePoint" />
            <mxPoint x="1241" y="8560" as="targetPoint" />
            <mxPoint as="offset" />
          </mxGeometry>
        </mxCell>
        <mxCell id="uwaND6BC8r1rGY1EPm4n-14" value="" style="html=1;points=[[0,0,0,0,5],[0,1,0,0,-5],[1,0,0,0,5],[1,1,0,0,-5]];perimeter=orthogonalPerimeter;outlineConnect=0;targetShapes=umlLifeline;portConstraint=eastwest;newEdgeStyle={&quot;curved&quot;:0,&quot;rounded&quot;:0};fontFamily=Helvetica;fontSize=11;fontColor=default;" vertex="1" parent="1">
          <mxGeometry x="920" y="8520" width="10" height="210" as="geometry" />
        </mxCell>
        <mxCell id="uwaND6BC8r1rGY1EPm4n-17" value="read course from file" style="html=1;verticalAlign=bottom;endArrow=block;curved=0;rounded=0;labelBackgroundColor=default;strokeColor=default;align=center;fontFamily=Helvetica;fontSize=11;fontColor=default;shape=connector;" edge="1" parent="1">
          <mxGeometry x="0.0018" width="80" relative="1" as="geometry">
            <mxPoint x="932" y="8930" as="sourcePoint" />
            <mxPoint x="1241" y="8930" as="targetPoint" />
            <mxPoint as="offset" />
          </mxGeometry>
        </mxCell>
        <mxCell id="uwaND6BC8r1rGY1EPm4n-18" value="the course" style="html=1;verticalAlign=bottom;endArrow=none;curved=0;rounded=0;labelBackgroundColor=default;strokeColor=default;align=center;fontFamily=Helvetica;fontSize=11;fontColor=default;shape=connector;startArrow=block;startFill=1;endFill=0;dashed=1;dashPattern=8 8;" edge="1" parent="1">
          <mxGeometry width="80" relative="1" as="geometry">
            <mxPoint x="932" y="9060" as="sourcePoint" />
            <mxPoint x="1241" y="9060" as="targetPoint" />
          </mxGeometry>
        </mxCell>
        <mxCell id="uwaND6BC8r1rGY1EPm4n-19" value="" style="html=1;points=[[0,0,0,0,5],[0,1,0,0,-5],[1,0,0,0,5],[1,1,0,0,-5]];perimeter=orthogonalPerimeter;outlineConnect=0;targetShapes=umlLifeline;portConstraint=eastwest;newEdgeStyle={&quot;curved&quot;:0,&quot;rounded&quot;:0};fontFamily=Helvetica;fontSize=11;fontColor=default;" vertex="1" parent="1">
          <mxGeometry x="1250" y="8930" width="10" height="130" as="geometry" />
        </mxCell>
        <mxCell id="uwaND6BC8r1rGY1EPm4n-22" value="" style="html=1;points=[[0,0,0,0,5],[0,1,0,0,-5],[1,0,0,0,5],[1,1,0,0,-5]];perimeter=orthogonalPerimeter;outlineConnect=0;targetShapes=umlLifeline;portConstraint=eastwest;newEdgeStyle={&quot;curved&quot;:0,&quot;rounded&quot;:0};fontFamily=Helvetica;fontSize=11;fontColor=default;" vertex="1" parent="1">
          <mxGeometry x="920" y="8930" width="10" height="130" as="geometry" />
        </mxCell>
        <mxCell id="uwaND6BC8r1rGY1EPm4n-23" value="WRITE COURSE" style="text;html=1;align=center;verticalAlign=middle;resizable=0;points=[];autosize=1;strokeColor=none;fillColor=none;" vertex="1" parent="1">
          <mxGeometry x="940" y="8460" width="120" height="30" as="geometry" />
        </mxCell>
        <mxCell id="uwaND6BC8r1rGY1EPm4n-24" value="READ COURSE" style="text;html=1;align=center;verticalAlign=middle;resizable=0;points=[];autosize=1;strokeColor=none;fillColor=none;" vertex="1" parent="1">
          <mxGeometry x="945" y="8860" width="110" height="30" as="geometry" />
        </mxCell>
        <mxCell id="ra5T0CKLh5RI7k1-1iP0-1" value="add lesson" style="html=1;verticalAlign=bottom;endArrow=block;curved=0;rounded=0;labelBackgroundColor=default;strokeColor=default;align=center;fontFamily=Helvetica;fontSize=11;fontColor=default;shape=connector;" edge="1" parent="1">
          <mxGeometry x="0.0018" width="80" relative="1" as="geometry">
            <mxPoint x="932" y="8040" as="sourcePoint" />
            <mxPoint x="1241" y="8040" as="targetPoint" />
            <mxPoint as="offset" />
          </mxGeometry>
        </mxCell>
        <mxCell id="ra5T0CKLh5RI7k1-1iP0-2" value="select course (no.) from this courses list" style="html=1;verticalAlign=bottom;endArrow=none;curved=0;rounded=0;labelBackgroundColor=default;strokeColor=default;align=center;fontFamily=Helvetica;fontSize=11;fontColor=default;shape=connector;startArrow=block;startFill=1;endFill=0;" edge="1" parent="1">
          <mxGeometry x="0.0018" width="80" relative="1" as="geometry">
            <mxPoint x="932" y="8170" as="sourcePoint" />
            <mxPoint x="1241" y="8170" as="targetPoint" />
            <mxPoint as="offset" />
          </mxGeometry>
        </mxCell>
        <mxCell id="ra5T0CKLh5RI7k1-1iP0-3" value="course (no.)" style="html=1;verticalAlign=bottom;endArrow=block;curved=0;rounded=0;labelBackgroundColor=default;strokeColor=default;align=center;fontFamily=Helvetica;fontSize=11;fontColor=default;shape=connector;" edge="1" parent="1">
          <mxGeometry x="0.0018" width="80" relative="1" as="geometry">
            <mxPoint x="932" y="8210" as="sourcePoint" />
            <mxPoint x="1241" y="8210" as="targetPoint" />
            <mxPoint as="offset" />
          </mxGeometry>
        </mxCell>
        <mxCell id="ra5T0CKLh5RI7k1-1iP0-4" value="section added to the course" style="html=1;verticalAlign=bottom;endArrow=none;curved=0;rounded=0;labelBackgroundColor=default;strokeColor=default;align=center;fontFamily=Helvetica;fontSize=11;fontColor=default;shape=connector;startArrow=block;startFill=1;endFill=0;dashed=1;dashPattern=8 8;" edge="1" parent="1">
          <mxGeometry x="0.0018" width="80" relative="1" as="geometry">
            <mxPoint x="932" y="8349.130000000001" as="sourcePoint" />
            <mxPoint x="1241" y="8349.130000000001" as="targetPoint" />
            <mxPoint as="offset" />
          </mxGeometry>
        </mxCell>
        <mxCell id="ra5T0CKLh5RI7k1-1iP0-5" value="lesson no. and title" style="html=1;verticalAlign=bottom;endArrow=block;curved=0;rounded=0;labelBackgroundColor=default;strokeColor=default;align=center;fontFamily=Helvetica;fontSize=11;fontColor=default;shape=connector;" edge="1" parent="1">
          <mxGeometry x="0.0018" width="80" relative="1" as="geometry">
            <mxPoint x="931" y="8121" as="sourcePoint" />
            <mxPoint x="1240" y="8121" as="targetPoint" />
            <mxPoint as="offset" />
          </mxGeometry>
        </mxCell>
        <mxCell id="ra5T0CKLh5RI7k1-1iP0-6" value="enter lesson no. and title" style="html=1;verticalAlign=bottom;endArrow=none;curved=0;rounded=0;labelBackgroundColor=default;strokeColor=default;align=center;fontFamily=Helvetica;fontSize=11;fontColor=default;shape=connector;startArrow=block;startFill=1;endFill=0;" edge="1" parent="1">
          <mxGeometry x="0.0018" width="80" relative="1" as="geometry">
            <mxPoint x="932" y="8081" as="sourcePoint" />
            <mxPoint x="1241" y="8081" as="targetPoint" />
            <mxPoint as="offset" />
          </mxGeometry>
        </mxCell>
        <mxCell id="ra5T0CKLh5RI7k1-1iP0-7" value="" style="html=1;verticalAlign=bottom;endArrow=block;curved=0;rounded=0;labelBackgroundColor=default;strokeColor=default;align=center;fontFamily=Helvetica;fontSize=11;fontColor=default;shape=connector;" edge="1" target="ra5T0CKLh5RI7k1-1iP0-8" parent="1">
          <mxGeometry x="0.0018" width="80" relative="1" as="geometry">
            <mxPoint x="932" y="8040" as="sourcePoint" />
            <mxPoint x="1241" y="8040" as="targetPoint" />
            <mxPoint as="offset" />
          </mxGeometry>
        </mxCell>
        <mxCell id="ra5T0CKLh5RI7k1-1iP0-8" value="" style="html=1;points=[[0,0,0,0,5],[0,1,0,0,-5],[1,0,0,0,5],[1,1,0,0,-5]];perimeter=orthogonalPerimeter;outlineConnect=0;targetShapes=umlLifeline;portConstraint=eastwest;newEdgeStyle={&quot;curved&quot;:0,&quot;rounded&quot;:0};fontFamily=Helvetica;fontSize=11;fontColor=default;" vertex="1" parent="1">
          <mxGeometry x="920" y="8040" width="10" height="310" as="geometry" />
        </mxCell>
        <mxCell id="ra5T0CKLh5RI7k1-1iP0-9" value="" style="html=1;points=[[0,0,0,0,5],[0,1,0,0,-5],[1,0,0,0,5],[1,1,0,0,-5]];perimeter=orthogonalPerimeter;outlineConnect=0;targetShapes=umlLifeline;portConstraint=eastwest;newEdgeStyle={&quot;curved&quot;:0,&quot;rounded&quot;:0};fontFamily=Helvetica;fontSize=11;fontColor=default;" vertex="1" parent="1">
          <mxGeometry x="1250" y="8040" width="10" height="310" as="geometry" />
        </mxCell>
        <mxCell id="ra5T0CKLh5RI7k1-1iP0-10" value="select section (no.) from this course list" style="html=1;verticalAlign=bottom;endArrow=none;curved=0;rounded=0;labelBackgroundColor=default;strokeColor=default;align=center;fontFamily=Helvetica;fontSize=11;fontColor=default;shape=connector;startArrow=block;startFill=1;endFill=0;" edge="1" parent="1">
          <mxGeometry x="0.0018" width="80" relative="1" as="geometry">
            <mxPoint x="932" y="8260" as="sourcePoint" />
            <mxPoint x="1241" y="8260" as="targetPoint" />
            <mxPoint as="offset" />
          </mxGeometry>
        </mxCell>
        <mxCell id="ra5T0CKLh5RI7k1-1iP0-11" value="section (no.)" style="html=1;verticalAlign=bottom;endArrow=block;curved=0;rounded=0;labelBackgroundColor=default;strokeColor=default;align=center;fontFamily=Helvetica;fontSize=11;fontColor=default;shape=connector;" edge="1" parent="1">
          <mxGeometry x="0.0018" width="80" relative="1" as="geometry">
            <mxPoint x="932" y="8300" as="sourcePoint" />
            <mxPoint x="1241" y="8300" as="targetPoint" />
            <mxPoint as="offset" />
          </mxGeometry>
        </mxCell>
        <mxCell id="1BbGfkggCNmdoXJYsaK8-1" value="remove section" style="html=1;verticalAlign=bottom;endArrow=block;curved=0;rounded=0;labelBackgroundColor=default;strokeColor=default;align=center;fontFamily=Helvetica;fontSize=11;fontColor=default;shape=connector;" edge="1" parent="1">
          <mxGeometry x="0.0018" width="80" relative="1" as="geometry">
            <mxPoint x="932" y="7260" as="sourcePoint" />
            <mxPoint x="1241" y="7260" as="targetPoint" />
            <mxPoint as="offset" />
          </mxGeometry>
        </mxCell>
        <mxCell id="1BbGfkggCNmdoXJYsaK8-2" value="select course (no.) from this course list" style="html=1;verticalAlign=bottom;endArrow=none;curved=0;rounded=0;labelBackgroundColor=default;strokeColor=default;align=center;fontFamily=Helvetica;fontSize=11;fontColor=default;shape=connector;startArrow=block;startFill=1;endFill=0;" edge="1" parent="1">
          <mxGeometry x="0.0018" width="80" relative="1" as="geometry">
            <mxPoint x="932" y="7310" as="sourcePoint" />
            <mxPoint x="1241" y="7310" as="targetPoint" />
            <mxPoint as="offset" />
          </mxGeometry>
        </mxCell>
        <mxCell id="1BbGfkggCNmdoXJYsaK8-3" value="course (no.)" style="html=1;verticalAlign=bottom;endArrow=block;curved=0;rounded=0;labelBackgroundColor=default;strokeColor=default;align=center;fontFamily=Helvetica;fontSize=11;fontColor=default;shape=connector;" edge="1" parent="1">
          <mxGeometry x="0.0018" width="80" relative="1" as="geometry">
            <mxPoint x="932" y="7350" as="sourcePoint" />
            <mxPoint x="1241" y="7350" as="targetPoint" />
            <mxPoint as="offset" />
          </mxGeometry>
        </mxCell>
        <mxCell id="1BbGfkggCNmdoXJYsaK8-4" value="section removed" style="html=1;verticalAlign=bottom;endArrow=none;curved=0;rounded=0;labelBackgroundColor=default;strokeColor=default;align=center;fontFamily=Helvetica;fontSize=11;fontColor=default;shape=connector;startArrow=block;startFill=1;endFill=0;dashed=1;dashPattern=8 8;" edge="1" parent="1">
          <mxGeometry x="0.0018" width="80" relative="1" as="geometry">
            <mxPoint x="932" y="7530" as="sourcePoint" />
            <mxPoint x="1241" y="7530" as="targetPoint" />
            <mxPoint as="offset" />
          </mxGeometry>
        </mxCell>
        <mxCell id="1BbGfkggCNmdoXJYsaK8-5" value="section (no.)&amp;nbsp;" style="html=1;verticalAlign=bottom;endArrow=block;curved=0;rounded=0;labelBackgroundColor=default;strokeColor=default;align=center;fontFamily=Helvetica;fontSize=11;fontColor=default;shape=connector;" edge="1" parent="1">
          <mxGeometry x="0.0018" width="80" relative="1" as="geometry">
            <mxPoint x="930.5" y="7460" as="sourcePoint" />
            <mxPoint x="1239.5" y="7460" as="targetPoint" />
            <mxPoint as="offset" />
          </mxGeometry>
        </mxCell>
        <mxCell id="1BbGfkggCNmdoXJYsaK8-6" value="select section (no.)" style="html=1;verticalAlign=bottom;endArrow=none;curved=0;rounded=0;labelBackgroundColor=default;strokeColor=default;align=center;fontFamily=Helvetica;fontSize=11;fontColor=default;shape=connector;startArrow=block;startFill=1;endFill=0;" edge="1" parent="1">
          <mxGeometry x="0.0018" width="80" relative="1" as="geometry">
            <mxPoint x="931.5" y="7420" as="sourcePoint" />
            <mxPoint x="1240.5" y="7420" as="targetPoint" />
            <mxPoint as="offset" />
          </mxGeometry>
        </mxCell>
        <mxCell id="1BbGfkggCNmdoXJYsaK8-7" value="" style="html=1;verticalAlign=bottom;endArrow=block;curved=0;rounded=0;labelBackgroundColor=default;strokeColor=default;align=center;fontFamily=Helvetica;fontSize=11;fontColor=default;shape=connector;" edge="1" target="1BbGfkggCNmdoXJYsaK8-8" parent="1">
          <mxGeometry x="0.0018" width="80" relative="1" as="geometry">
            <mxPoint x="932" y="7260" as="sourcePoint" />
            <mxPoint x="1241" y="7260" as="targetPoint" />
            <mxPoint as="offset" />
          </mxGeometry>
        </mxCell>
        <mxCell id="1BbGfkggCNmdoXJYsaK8-8" value="" style="html=1;points=[[0,0,0,0,5],[0,1,0,0,-5],[1,0,0,0,5],[1,1,0,0,-5]];perimeter=orthogonalPerimeter;outlineConnect=0;targetShapes=umlLifeline;portConstraint=eastwest;newEdgeStyle={&quot;curved&quot;:0,&quot;rounded&quot;:0};fontFamily=Helvetica;fontSize=11;fontColor=default;" vertex="1" parent="1">
          <mxGeometry x="920" y="7260" width="10" height="270" as="geometry" />
        </mxCell>
        <mxCell id="1BbGfkggCNmdoXJYsaK8-9" value="" style="html=1;points=[[0,0,0,0,5],[0,1,0,0,-5],[1,0,0,0,5],[1,1,0,0,-5]];perimeter=orthogonalPerimeter;outlineConnect=0;targetShapes=umlLifeline;portConstraint=eastwest;newEdgeStyle={&quot;curved&quot;:0,&quot;rounded&quot;:0};fontFamily=Helvetica;fontSize=11;fontColor=default;" vertex="1" parent="1">
          <mxGeometry x="1250" y="7260" width="10" height="270" as="geometry" />
        </mxCell>
        <mxCell id="GgW2gH7YR1pjeWxq01iK-3" style="rounded=0;orthogonalLoop=1;jettySize=auto;html=1;dashed=1;dashPattern=12 12;" edge="1" parent="1" source="GgW2gH7YR1pjeWxq01iK-27">
          <mxGeometry relative="1" as="geometry">
            <mxPoint x="1500" y="9201.6" as="targetPoint" />
          </mxGeometry>
        </mxCell>
        <mxCell id="GgW2gH7YR1pjeWxq01iK-2" value="CourseFileHandler" style="html=1;whiteSpace=wrap;" vertex="1" parent="1">
          <mxGeometry x="1430" y="5960" width="110" height="50" as="geometry" />
        </mxCell>
        <mxCell id="GgW2gH7YR1pjeWxq01iK-6" value="File" style="html=1;whiteSpace=wrap;" vertex="1" parent="1">
          <mxGeometry x="1670" y="5960" width="110" height="50" as="geometry" />
        </mxCell>
        <mxCell id="GgW2gH7YR1pjeWxq01iK-7" style="rounded=0;orthogonalLoop=1;jettySize=auto;html=1;dashed=1;dashPattern=12 12;" edge="1" source="GgW2gH7YR1pjeWxq01iK-6" parent="1">
          <mxGeometry relative="1" as="geometry">
            <mxPoint x="1730" y="9190" as="targetPoint" />
          </mxGeometry>
        </mxCell>
        <mxCell id="GgW2gH7YR1pjeWxq01iK-9" value="write course to file" style="html=1;verticalAlign=bottom;endArrow=block;curved=0;rounded=0;labelBackgroundColor=default;strokeColor=default;align=center;fontFamily=Helvetica;fontSize=11;fontColor=default;shape=connector;" edge="1" parent="1">
          <mxGeometry x="0.0018" width="80" relative="1" as="geometry">
            <mxPoint x="1260" y="8630" as="sourcePoint" />
            <mxPoint x="1490" y="8630" as="targetPoint" />
            <mxPoint as="offset" />
          </mxGeometry>
        </mxCell>
        <mxCell id="GgW2gH7YR1pjeWxq01iK-10" value="write course to file" style="html=1;verticalAlign=bottom;endArrow=block;curved=0;rounded=0;labelBackgroundColor=default;strokeColor=default;align=center;fontFamily=Helvetica;fontSize=11;fontColor=default;shape=connector;" edge="1" parent="1">
          <mxGeometry x="0.0018" width="80" relative="1" as="geometry">
            <mxPoint x="1500" y="8650" as="sourcePoint" />
            <mxPoint x="1730" y="8650" as="targetPoint" />
            <mxPoint as="offset" />
          </mxGeometry>
        </mxCell>
        <mxCell id="GgW2gH7YR1pjeWxq01iK-11" value="course written to file" style="html=1;verticalAlign=bottom;endArrow=none;curved=0;rounded=0;labelBackgroundColor=default;strokeColor=default;align=center;fontFamily=Helvetica;fontSize=11;fontColor=default;shape=connector;startArrow=block;startFill=1;endFill=0;dashed=1;dashPattern=8 8;" edge="1" parent="1">
          <mxGeometry width="80" relative="1" as="geometry">
            <mxPoint x="1260" y="8710" as="sourcePoint" />
            <mxPoint x="1499" y="8710" as="targetPoint" />
          </mxGeometry>
        </mxCell>
        <mxCell id="GgW2gH7YR1pjeWxq01iK-12" value="course written to file" style="html=1;verticalAlign=bottom;endArrow=none;curved=0;rounded=0;labelBackgroundColor=default;strokeColor=default;align=center;fontFamily=Helvetica;fontSize=11;fontColor=default;shape=connector;startArrow=block;startFill=1;endFill=0;dashed=1;dashPattern=8 8;" edge="1" parent="1">
          <mxGeometry width="80" relative="1" as="geometry">
            <mxPoint x="1500" y="8690" as="sourcePoint" />
            <mxPoint x="1729" y="8690" as="targetPoint" />
          </mxGeometry>
        </mxCell>
        <mxCell id="GgW2gH7YR1pjeWxq01iK-26" value="" style="rounded=0;orthogonalLoop=1;jettySize=auto;html=1;dashed=1;dashPattern=12 12;endArrow=none;endFill=0;" edge="1" parent="1" source="GgW2gH7YR1pjeWxq01iK-2" target="GgW2gH7YR1pjeWxq01iK-27">
          <mxGeometry relative="1" as="geometry">
            <mxPoint x="1500" y="9201.6" as="targetPoint" />
            <mxPoint x="1485" y="6010" as="sourcePoint" />
          </mxGeometry>
        </mxCell>
        <mxCell id="GgW2gH7YR1pjeWxq01iK-27" value="" style="html=1;points=[[0,0,0,0,5],[0,1,0,0,-5],[1,0,0,0,5],[1,1,0,0,-5]];perimeter=orthogonalPerimeter;outlineConnect=0;targetShapes=umlLifeline;portConstraint=eastwest;newEdgeStyle={&quot;curved&quot;:0,&quot;rounded&quot;:0};" vertex="1" parent="1">
          <mxGeometry x="1495" y="8630" width="10" height="80" as="geometry" />
        </mxCell>
        <mxCell id="GgW2gH7YR1pjeWxq01iK-28" value="" style="html=1;points=[[0,0,0,0,5],[0,1,0,0,-5],[1,0,0,0,5],[1,1,0,0,-5]];perimeter=orthogonalPerimeter;outlineConnect=0;targetShapes=umlLifeline;portConstraint=eastwest;newEdgeStyle={&quot;curved&quot;:0,&quot;rounded&quot;:0};" vertex="1" parent="1">
          <mxGeometry x="1730" y="8650" width="10" height="40" as="geometry" />
        </mxCell>
        <mxCell id="GgW2gH7YR1pjeWxq01iK-29" value="read course from file" style="html=1;verticalAlign=bottom;endArrow=block;curved=0;rounded=0;labelBackgroundColor=default;strokeColor=default;align=center;fontFamily=Helvetica;fontSize=11;fontColor=default;shape=connector;" edge="1" parent="1">
          <mxGeometry x="0.0018" width="80" relative="1" as="geometry">
            <mxPoint x="1260" y="8950" as="sourcePoint" />
            <mxPoint x="1490" y="8950" as="targetPoint" />
            <mxPoint as="offset" />
          </mxGeometry>
        </mxCell>
        <mxCell id="GgW2gH7YR1pjeWxq01iK-30" value="read course from file" style="html=1;verticalAlign=bottom;endArrow=block;curved=0;rounded=0;labelBackgroundColor=default;strokeColor=default;align=center;fontFamily=Helvetica;fontSize=11;fontColor=default;shape=connector;" edge="1" parent="1">
          <mxGeometry x="0.0018" width="80" relative="1" as="geometry">
            <mxPoint x="1500" y="8970" as="sourcePoint" />
            <mxPoint x="1730" y="8970" as="targetPoint" />
            <mxPoint as="offset" />
          </mxGeometry>
        </mxCell>
        <mxCell id="GgW2gH7YR1pjeWxq01iK-31" value="the course" style="html=1;verticalAlign=bottom;endArrow=none;curved=0;rounded=0;labelBackgroundColor=default;strokeColor=default;align=center;fontFamily=Helvetica;fontSize=11;fontColor=default;shape=connector;startArrow=block;startFill=1;endFill=0;dashed=1;dashPattern=8 8;" edge="1" parent="1">
          <mxGeometry width="80" relative="1" as="geometry">
            <mxPoint x="1260" y="9030" as="sourcePoint" />
            <mxPoint x="1499" y="9030" as="targetPoint" />
          </mxGeometry>
        </mxCell>
        <mxCell id="GgW2gH7YR1pjeWxq01iK-32" value="the course" style="html=1;verticalAlign=bottom;endArrow=none;curved=0;rounded=0;labelBackgroundColor=default;strokeColor=default;align=center;fontFamily=Helvetica;fontSize=11;fontColor=default;shape=connector;startArrow=block;startFill=1;endFill=0;dashed=1;dashPattern=8 8;" edge="1" parent="1">
          <mxGeometry width="80" relative="1" as="geometry">
            <mxPoint x="1500" y="9010" as="sourcePoint" />
            <mxPoint x="1729" y="9010" as="targetPoint" />
          </mxGeometry>
        </mxCell>
        <mxCell id="GgW2gH7YR1pjeWxq01iK-33" value="" style="html=1;points=[[0,0,0,0,5],[0,1,0,0,-5],[1,0,0,0,5],[1,1,0,0,-5]];perimeter=orthogonalPerimeter;outlineConnect=0;targetShapes=umlLifeline;portConstraint=eastwest;newEdgeStyle={&quot;curved&quot;:0,&quot;rounded&quot;:0};" vertex="1" parent="1">
          <mxGeometry x="1495" y="8950" width="10" height="80" as="geometry" />
        </mxCell>
        <mxCell id="GgW2gH7YR1pjeWxq01iK-34" value="" style="html=1;points=[[0,0,0,0,5],[0,1,0,0,-5],[1,0,0,0,5],[1,1,0,0,-5]];perimeter=orthogonalPerimeter;outlineConnect=0;targetShapes=umlLifeline;portConstraint=eastwest;newEdgeStyle={&quot;curved&quot;:0,&quot;rounded&quot;:0};" vertex="1" parent="1">
          <mxGeometry x="1730" y="8970" width="10" height="40" as="geometry" />
        </mxCell>
      </root>
    </mxGraphModel>
  </diagram>
  <diagram id="TPCMbIYBczDjatw_jyiZ" name="ActivityDiagram">
    <mxGraphModel dx="1509" dy="887" grid="1" gridSize="10" guides="1" tooltips="1" connect="1" arrows="1" fold="1" page="1" pageScale="1" pageWidth="827" pageHeight="1169" math="0" shadow="0">
      <root>
        <mxCell id="0" />
        <mxCell id="1" parent="0" />
        <mxCell id="xOB6cCnz95n0rOOrFbdN-1" value="" style="ellipse;html=1;shape=startState;fillColor=#000000;strokeColor=#ff0000;fontFamily=Helvetica;fontSize=11;fontColor=default;" vertex="1" parent="1">
          <mxGeometry x="414" y="250" width="30" height="30" as="geometry" />
        </mxCell>
        <mxCell id="xOB6cCnz95n0rOOrFbdN-2" value="" style="edgeStyle=orthogonalEdgeStyle;html=1;verticalAlign=bottom;endArrow=open;endSize=8;strokeColor=#ff0000;rounded=0;labelBackgroundColor=default;align=center;fontFamily=Helvetica;fontSize=11;fontColor=default;shape=connector;entryX=0.5;entryY=0;entryDx=0;entryDy=0;" edge="1" parent="1" source="xOB6cCnz95n0rOOrFbdN-1" target="xOB6cCnz95n0rOOrFbdN-6">
          <mxGeometry relative="1" as="geometry">
            <mxPoint x="429" y="340" as="targetPoint" />
          </mxGeometry>
        </mxCell>
        <mxCell id="xOB6cCnz95n0rOOrFbdN-3" style="edgeStyle=none;shape=connector;rounded=0;orthogonalLoop=1;jettySize=auto;html=1;exitX=1;exitY=0.5;exitDx=0;exitDy=0;labelBackgroundColor=default;strokeColor=default;align=center;verticalAlign=middle;fontFamily=Helvetica;fontSize=11;fontColor=default;endArrow=none;endFill=0;dashed=1;dashPattern=12 12;" edge="1" parent="1" source="xOB6cCnz95n0rOOrFbdN-4" target="xOB6cCnz95n0rOOrFbdN-7">
          <mxGeometry relative="1" as="geometry" />
        </mxCell>
        <mxCell id="xOB6cCnz95n0rOOrFbdN-4" value="" style="ellipse;html=1;shape=endState;fillColor=#000000;strokeColor=#ff0000;fontFamily=Helvetica;fontSize=11;fontColor=default;" vertex="1" parent="1">
          <mxGeometry x="414" y="1020" width="30" height="30" as="geometry" />
        </mxCell>
        <mxCell id="xOB6cCnz95n0rOOrFbdN-5" style="edgeStyle=none;shape=connector;rounded=0;orthogonalLoop=1;jettySize=auto;html=1;exitX=0.5;exitY=1;exitDx=0;exitDy=0;labelBackgroundColor=default;strokeColor=default;align=center;verticalAlign=middle;fontFamily=Helvetica;fontSize=11;fontColor=default;endArrow=blockThin;endFill=1;" edge="1" parent="1" source="xOB6cCnz95n0rOOrFbdN-6" target="xOB6cCnz95n0rOOrFbdN-15">
          <mxGeometry relative="1" as="geometry">
            <mxPoint x="429" y="509" as="targetPoint" />
          </mxGeometry>
        </mxCell>
        <mxCell id="xOB6cCnz95n0rOOrFbdN-6" value="create course&amp;nbsp;" style="rounded=1;whiteSpace=wrap;html=1;fontFamily=Helvetica;fontSize=11;fontColor=default;" vertex="1" parent="1">
          <mxGeometry x="369" y="380" width="120" height="60" as="geometry" />
        </mxCell>
        <mxCell id="xOB6cCnz95n0rOOrFbdN-7" value="course added to file successfully messsage" style="whiteSpace=wrap;html=1;shape=mxgraph.basic.document;fontFamily=Helvetica;fontSize=11;fontColor=default;" vertex="1" parent="1">
          <mxGeometry x="640" y="985" width="100" height="100" as="geometry" />
        </mxCell>
        <mxCell id="xOB6cCnz95n0rOOrFbdN-8" style="edgeStyle=none;shape=connector;rounded=0;orthogonalLoop=1;jettySize=auto;html=1;entryX=0;entryY=0.5;entryDx=0;entryDy=0;labelBackgroundColor=default;strokeColor=default;align=center;verticalAlign=middle;fontFamily=Helvetica;fontSize=11;fontColor=default;endArrow=none;endFill=0;dashed=1;dashPattern=12 12;" edge="1" parent="1" source="xOB6cCnz95n0rOOrFbdN-9" target="xOB6cCnz95n0rOOrFbdN-1">
          <mxGeometry relative="1" as="geometry" />
        </mxCell>
        <mxCell id="xOB6cCnz95n0rOOrFbdN-9" value="add course" style="whiteSpace=wrap;html=1;shape=mxgraph.basic.document;fontFamily=Helvetica;fontSize=11;fontColor=default;" vertex="1" parent="1">
          <mxGeometry x="140" y="215" width="100" height="100" as="geometry" />
        </mxCell>
        <mxCell id="xOB6cCnz95n0rOOrFbdN-14" style="edgeStyle=none;shape=connector;rounded=0;orthogonalLoop=1;jettySize=auto;html=1;exitX=0.5;exitY=1;exitDx=0;exitDy=0;entryX=0.5;entryY=0;entryDx=0;entryDy=0;labelBackgroundColor=default;strokeColor=default;align=center;verticalAlign=middle;fontFamily=Helvetica;fontSize=11;fontColor=default;endArrow=blockThin;endFill=1;" edge="1" parent="1" source="xOB6cCnz95n0rOOrFbdN-15" target="xOB6cCnz95n0rOOrFbdN-4">
          <mxGeometry relative="1" as="geometry">
            <mxPoint x="429" y="880" as="targetPoint" />
          </mxGeometry>
        </mxCell>
        <mxCell id="xOB6cCnz95n0rOOrFbdN-15" value="course write to file" style="rounded=1;whiteSpace=wrap;html=1;fontFamily=Helvetica;fontSize=11;fontColor=default;" vertex="1" parent="1">
          <mxGeometry x="369" y="740" width="120" height="60" as="geometry" />
        </mxCell>
        <mxCell id="WNEPbakgqsnTlf1nJeY7-1" value="WRITE COURSE" style="text;html=1;align=center;verticalAlign=middle;resizable=0;points=[];autosize=1;strokeColor=none;fillColor=none;" vertex="1" parent="1">
          <mxGeometry x="370" y="28" width="120" height="30" as="geometry" />
        </mxCell>
        <mxCell id="WNEPbakgqsnTlf1nJeY7-2" value="READ COURSE" style="text;html=1;align=center;verticalAlign=middle;resizable=0;points=[];autosize=1;strokeColor=none;fillColor=none;" vertex="1" parent="1">
          <mxGeometry x="1246" y="28" width="110" height="30" as="geometry" />
        </mxCell>
        <mxCell id="WNEPbakgqsnTlf1nJeY7-4" value="" style="ellipse;html=1;shape=startState;fillColor=#000000;strokeColor=#ff0000;fontFamily=Helvetica;fontSize=11;fontColor=default;" vertex="1" parent="1">
          <mxGeometry x="1234" y="250" width="30" height="30" as="geometry" />
        </mxCell>
        <mxCell id="WNEPbakgqsnTlf1nJeY7-5" value="" style="edgeStyle=orthogonalEdgeStyle;html=1;verticalAlign=bottom;endArrow=open;endSize=8;strokeColor=#ff0000;rounded=0;labelBackgroundColor=default;align=center;fontFamily=Helvetica;fontSize=11;fontColor=default;shape=connector;entryX=0.5;entryY=0;entryDx=0;entryDy=0;" edge="1" parent="1" source="WNEPbakgqsnTlf1nJeY7-4" target="WNEPbakgqsnTlf1nJeY7-9">
          <mxGeometry relative="1" as="geometry">
            <mxPoint x="1249" y="340" as="targetPoint" />
          </mxGeometry>
        </mxCell>
        <mxCell id="WNEPbakgqsnTlf1nJeY7-6" style="edgeStyle=none;shape=connector;rounded=0;orthogonalLoop=1;jettySize=auto;html=1;exitX=1;exitY=0.5;exitDx=0;exitDy=0;labelBackgroundColor=default;strokeColor=default;align=center;verticalAlign=middle;fontFamily=Helvetica;fontSize=11;fontColor=default;endArrow=none;endFill=0;dashed=1;dashPattern=12 12;" edge="1" parent="1" source="WNEPbakgqsnTlf1nJeY7-7" target="WNEPbakgqsnTlf1nJeY7-10">
          <mxGeometry relative="1" as="geometry" />
        </mxCell>
        <mxCell id="WNEPbakgqsnTlf1nJeY7-7" value="" style="ellipse;html=1;shape=endState;fillColor=#000000;strokeColor=#ff0000;fontFamily=Helvetica;fontSize=11;fontColor=default;" vertex="1" parent="1">
          <mxGeometry x="1234" y="1020" width="30" height="30" as="geometry" />
        </mxCell>
        <mxCell id="WNEPbakgqsnTlf1nJeY7-8" style="edgeStyle=none;shape=connector;rounded=0;orthogonalLoop=1;jettySize=auto;html=1;exitX=0.5;exitY=1;exitDx=0;exitDy=0;entryX=0.5;entryY=0;entryDx=0;entryDy=0;labelBackgroundColor=default;strokeColor=default;align=center;verticalAlign=middle;fontFamily=Helvetica;fontSize=11;fontColor=default;endArrow=blockThin;endFill=1;" edge="1" parent="1" source="WNEPbakgqsnTlf1nJeY7-9" target="WNEPbakgqsnTlf1nJeY7-17">
          <mxGeometry relative="1" as="geometry" />
        </mxCell>
        <mxCell id="WNEPbakgqsnTlf1nJeY7-9" value="client select course from courses files list" style="rounded=1;whiteSpace=wrap;html=1;fontFamily=Helvetica;fontSize=11;fontColor=default;" vertex="1" parent="1">
          <mxGeometry x="1189" y="380" width="120" height="60" as="geometry" />
        </mxCell>
        <mxCell id="WNEPbakgqsnTlf1nJeY7-10" value="print readed course" style="whiteSpace=wrap;html=1;shape=mxgraph.basic.document;fontFamily=Helvetica;fontSize=11;fontColor=default;" vertex="1" parent="1">
          <mxGeometry x="1460" y="985" width="100" height="100" as="geometry" />
        </mxCell>
        <mxCell id="WNEPbakgqsnTlf1nJeY7-11" style="edgeStyle=none;shape=connector;rounded=0;orthogonalLoop=1;jettySize=auto;html=1;entryX=0;entryY=0.5;entryDx=0;entryDy=0;labelBackgroundColor=default;strokeColor=default;align=center;verticalAlign=middle;fontFamily=Helvetica;fontSize=11;fontColor=default;endArrow=none;endFill=0;dashed=1;dashPattern=12 12;" edge="1" parent="1" source="WNEPbakgqsnTlf1nJeY7-12" target="WNEPbakgqsnTlf1nJeY7-4">
          <mxGeometry relative="1" as="geometry" />
        </mxCell>
        <mxCell id="WNEPbakgqsnTlf1nJeY7-12" value="&amp;nbsp;read option" style="whiteSpace=wrap;html=1;shape=mxgraph.basic.document;fontFamily=Helvetica;fontSize=11;fontColor=default;" vertex="1" parent="1">
          <mxGeometry x="960" y="215" width="100" height="100" as="geometry" />
        </mxCell>
        <mxCell id="WNEPbakgqsnTlf1nJeY7-13" style="edgeStyle=none;shape=connector;rounded=0;orthogonalLoop=1;jettySize=auto;html=1;exitX=0.5;exitY=1;exitDx=0;exitDy=0;entryX=0.5;entryY=0;entryDx=0;entryDy=0;labelBackgroundColor=default;strokeColor=default;align=center;verticalAlign=middle;fontFamily=Helvetica;fontSize=11;fontColor=default;endArrow=blockThin;endFill=1;" edge="1" parent="1" source="WNEPbakgqsnTlf1nJeY7-17" target="WNEPbakgqsnTlf1nJeY7-19">
          <mxGeometry relative="1" as="geometry" />
        </mxCell>
        <mxCell id="WNEPbakgqsnTlf1nJeY7-14" value="yes" style="edgeLabel;html=1;align=center;verticalAlign=middle;resizable=0;points=[];fontSize=11;fontFamily=Helvetica;fontColor=default;" vertex="1" connectable="0" parent="WNEPbakgqsnTlf1nJeY7-13">
          <mxGeometry x="0.3551" relative="1" as="geometry">
            <mxPoint as="offset" />
          </mxGeometry>
        </mxCell>
        <mxCell id="WNEPbakgqsnTlf1nJeY7-15" style="edgeStyle=none;shape=connector;rounded=0;orthogonalLoop=1;jettySize=auto;html=1;exitX=1;exitY=0.5;exitDx=0;exitDy=0;labelBackgroundColor=default;strokeColor=default;align=center;verticalAlign=middle;fontFamily=Helvetica;fontSize=11;fontColor=default;endArrow=blockThin;endFill=1;" edge="1" parent="1" source="WNEPbakgqsnTlf1nJeY7-17">
          <mxGeometry relative="1" as="geometry">
            <mxPoint x="1430" y="584.4705882352941" as="targetPoint" />
          </mxGeometry>
        </mxCell>
        <mxCell id="WNEPbakgqsnTlf1nJeY7-16" value="no" style="edgeLabel;html=1;align=center;verticalAlign=middle;resizable=0;points=[];" vertex="1" connectable="0" parent="WNEPbakgqsnTlf1nJeY7-15">
          <mxGeometry x="-0.4292" y="-1" relative="1" as="geometry">
            <mxPoint as="offset" />
          </mxGeometry>
        </mxCell>
        <mxCell id="WNEPbakgqsnTlf1nJeY7-17" value="Correct option" style="rhombus;whiteSpace=wrap;html=1;fontFamily=Helvetica;fontSize=11;fontColor=default;" vertex="1" parent="1">
          <mxGeometry x="1175.75" y="509" width="146.5" height="150" as="geometry" />
        </mxCell>
        <mxCell id="WNEPbakgqsnTlf1nJeY7-18" style="edgeStyle=none;shape=connector;rounded=0;orthogonalLoop=1;jettySize=auto;html=1;exitX=0.5;exitY=1;exitDx=0;exitDy=0;entryX=0.5;entryY=0;entryDx=0;entryDy=0;labelBackgroundColor=default;strokeColor=default;align=center;verticalAlign=middle;fontFamily=Helvetica;fontSize=11;fontColor=default;endArrow=blockThin;endFill=1;" edge="1" parent="1" source="WNEPbakgqsnTlf1nJeY7-19" target="WNEPbakgqsnTlf1nJeY7-7">
          <mxGeometry relative="1" as="geometry">
            <mxPoint x="1249" y="880" as="targetPoint" />
          </mxGeometry>
        </mxCell>
        <mxCell id="WNEPbakgqsnTlf1nJeY7-19" value="course readed" style="rounded=1;whiteSpace=wrap;html=1;fontFamily=Helvetica;fontSize=11;fontColor=default;" vertex="1" parent="1">
          <mxGeometry x="1189" y="740" width="120" height="60" as="geometry" />
        </mxCell>
        <mxCell id="WNEPbakgqsnTlf1nJeY7-20" style="edgeStyle=orthogonalEdgeStyle;shape=connector;rounded=0;orthogonalLoop=1;jettySize=auto;html=1;exitX=0.5;exitY=0;exitDx=0;exitDy=0;entryX=1;entryY=0.5;entryDx=0;entryDy=0;labelBackgroundColor=default;strokeColor=default;align=center;verticalAlign=middle;fontFamily=Helvetica;fontSize=11;fontColor=default;endArrow=blockThin;endFill=1;" edge="1" parent="1" source="WNEPbakgqsnTlf1nJeY7-21" target="WNEPbakgqsnTlf1nJeY7-9">
          <mxGeometry relative="1" as="geometry" />
        </mxCell>
        <mxCell id="WNEPbakgqsnTlf1nJeY7-21" value="invalid option" style="rounded=1;whiteSpace=wrap;html=1;fontFamily=Helvetica;fontSize=11;fontColor=default;" vertex="1" parent="1">
          <mxGeometry x="1430" y="554" width="120" height="60" as="geometry" />
        </mxCell>
        <mxCell id="2aQ3EjErO41UNzCxHLrq-37" value="" style="ellipse;html=1;shape=startState;fillColor=#000000;strokeColor=#ff0000;fontFamily=Helvetica;fontSize=11;fontColor=default;" vertex="1" parent="1">
          <mxGeometry x="394" y="1442" width="30" height="30" as="geometry" />
        </mxCell>
        <mxCell id="2aQ3EjErO41UNzCxHLrq-38" value="" style="edgeStyle=orthogonalEdgeStyle;html=1;verticalAlign=bottom;endArrow=open;endSize=8;strokeColor=#ff0000;rounded=0;labelBackgroundColor=default;align=center;fontFamily=Helvetica;fontSize=11;fontColor=default;shape=connector;entryX=0.5;entryY=0;entryDx=0;entryDy=0;" edge="1" source="2aQ3EjErO41UNzCxHLrq-37" target="2aQ3EjErO41UNzCxHLrq-42" parent="1">
          <mxGeometry relative="1" as="geometry">
            <mxPoint x="409" y="1532" as="targetPoint" />
          </mxGeometry>
        </mxCell>
        <mxCell id="2aQ3EjErO41UNzCxHLrq-39" style="edgeStyle=none;shape=connector;rounded=0;orthogonalLoop=1;jettySize=auto;html=1;exitX=1;exitY=0.5;exitDx=0;exitDy=0;labelBackgroundColor=default;strokeColor=default;align=center;verticalAlign=middle;fontFamily=Helvetica;fontSize=11;fontColor=default;endArrow=none;endFill=0;dashed=1;dashPattern=12 12;" edge="1" source="2aQ3EjErO41UNzCxHLrq-40" target="2aQ3EjErO41UNzCxHLrq-43" parent="1">
          <mxGeometry relative="1" as="geometry" />
        </mxCell>
        <mxCell id="2aQ3EjErO41UNzCxHLrq-40" value="" style="ellipse;html=1;shape=endState;fillColor=#000000;strokeColor=#ff0000;fontFamily=Helvetica;fontSize=11;fontColor=default;" vertex="1" parent="1">
          <mxGeometry x="394" y="2020" width="30" height="30" as="geometry" />
        </mxCell>
        <mxCell id="2aQ3EjErO41UNzCxHLrq-41" style="edgeStyle=none;shape=connector;rounded=0;orthogonalLoop=1;jettySize=auto;html=1;exitX=0.5;exitY=1;exitDx=0;exitDy=0;entryX=0.5;entryY=0;entryDx=0;entryDy=0;labelBackgroundColor=default;strokeColor=default;align=center;verticalAlign=middle;fontFamily=Helvetica;fontSize=11;fontColor=default;endArrow=blockThin;endFill=1;" edge="1" source="2aQ3EjErO41UNzCxHLrq-42" target="2aQ3EjErO41UNzCxHLrq-52" parent="1">
          <mxGeometry relative="1" as="geometry">
            <mxPoint x="409" y="1701" as="targetPoint" />
          </mxGeometry>
        </mxCell>
        <mxCell id="2aQ3EjErO41UNzCxHLrq-42" value="Enter Course number, title, author name, price, rating." style="rounded=1;whiteSpace=wrap;html=1;fontFamily=Helvetica;fontSize=11;fontColor=default;" vertex="1" parent="1">
          <mxGeometry x="334.5" y="1572" width="149" height="60" as="geometry" />
        </mxCell>
        <mxCell id="2aQ3EjErO41UNzCxHLrq-43" value="course added successfull messsage" style="whiteSpace=wrap;html=1;shape=mxgraph.basic.document;fontFamily=Helvetica;fontSize=11;fontColor=default;" vertex="1" parent="1">
          <mxGeometry x="620" y="1985" width="100" height="100" as="geometry" />
        </mxCell>
        <mxCell id="2aQ3EjErO41UNzCxHLrq-44" style="edgeStyle=none;shape=connector;rounded=0;orthogonalLoop=1;jettySize=auto;html=1;entryX=0;entryY=0.5;entryDx=0;entryDy=0;labelBackgroundColor=default;strokeColor=default;align=center;verticalAlign=middle;fontFamily=Helvetica;fontSize=11;fontColor=default;endArrow=none;endFill=0;dashed=1;dashPattern=12 12;" edge="1" source="2aQ3EjErO41UNzCxHLrq-45" target="2aQ3EjErO41UNzCxHLrq-37" parent="1">
          <mxGeometry relative="1" as="geometry" />
        </mxCell>
        <mxCell id="2aQ3EjErO41UNzCxHLrq-45" value="Add course" style="whiteSpace=wrap;html=1;shape=mxgraph.basic.document;fontFamily=Helvetica;fontSize=11;fontColor=default;" vertex="1" parent="1">
          <mxGeometry x="120" y="1407" width="100" height="100" as="geometry" />
        </mxCell>
        <mxCell id="2aQ3EjErO41UNzCxHLrq-51" style="edgeStyle=none;shape=connector;rounded=0;orthogonalLoop=1;jettySize=auto;html=1;exitX=0.5;exitY=1;exitDx=0;exitDy=0;entryX=0.5;entryY=0;entryDx=0;entryDy=0;labelBackgroundColor=default;strokeColor=default;align=center;verticalAlign=middle;fontFamily=Helvetica;fontSize=11;fontColor=default;endArrow=blockThin;endFill=1;" edge="1" source="2aQ3EjErO41UNzCxHLrq-52" target="2aQ3EjErO41UNzCxHLrq-40" parent="1">
          <mxGeometry relative="1" as="geometry">
            <mxPoint x="409" y="1880" as="targetPoint" />
          </mxGeometry>
        </mxCell>
        <mxCell id="2aQ3EjErO41UNzCxHLrq-52" value="course created" style="rounded=1;whiteSpace=wrap;html=1;fontFamily=Helvetica;fontSize=11;fontColor=default;" vertex="1" parent="1">
          <mxGeometry x="349" y="1740" width="120" height="60" as="geometry" />
        </mxCell>
        <mxCell id="2aQ3EjErO41UNzCxHLrq-55" value="ADD COURSE" style="text;html=1;align=center;verticalAlign=middle;resizable=0;points=[];autosize=1;strokeColor=none;fillColor=none;" vertex="1" parent="1">
          <mxGeometry x="360" y="1220" width="100" height="30" as="geometry" />
        </mxCell>
        <mxCell id="2aQ3EjErO41UNzCxHLrq-56" value="" style="ellipse;html=1;shape=startState;fillColor=#000000;strokeColor=#ff0000;fontFamily=Helvetica;fontSize=11;fontColor=default;" vertex="1" parent="1">
          <mxGeometry x="1243.5" y="1355" width="30" height="30" as="geometry" />
        </mxCell>
        <mxCell id="2aQ3EjErO41UNzCxHLrq-57" value="" style="edgeStyle=orthogonalEdgeStyle;html=1;verticalAlign=bottom;endArrow=open;endSize=8;strokeColor=#ff0000;rounded=0;labelBackgroundColor=default;align=center;fontFamily=Helvetica;fontSize=11;fontColor=default;shape=connector;entryX=0.5;entryY=0;entryDx=0;entryDy=0;" edge="1" source="2aQ3EjErO41UNzCxHLrq-56" target="2aQ3EjErO41UNzCxHLrq-61" parent="1">
          <mxGeometry relative="1" as="geometry">
            <mxPoint x="1258.5" y="1445" as="targetPoint" />
          </mxGeometry>
        </mxCell>
        <mxCell id="2aQ3EjErO41UNzCxHLrq-58" style="edgeStyle=none;shape=connector;rounded=0;orthogonalLoop=1;jettySize=auto;html=1;exitX=1;exitY=0.5;exitDx=0;exitDy=0;labelBackgroundColor=default;strokeColor=default;align=center;verticalAlign=middle;fontFamily=Helvetica;fontSize=11;fontColor=default;endArrow=none;endFill=0;dashed=1;dashPattern=12 12;" edge="1" source="2aQ3EjErO41UNzCxHLrq-59" target="2aQ3EjErO41UNzCxHLrq-62" parent="1">
          <mxGeometry relative="1" as="geometry" />
        </mxCell>
        <mxCell id="2aQ3EjErO41UNzCxHLrq-59" value="" style="ellipse;html=1;shape=endState;fillColor=#000000;strokeColor=#ff0000;fontFamily=Helvetica;fontSize=11;fontColor=default;" vertex="1" parent="1">
          <mxGeometry x="1244.5" y="2173" width="30" height="30" as="geometry" />
        </mxCell>
        <mxCell id="2aQ3EjErO41UNzCxHLrq-76" style="rounded=0;orthogonalLoop=1;jettySize=auto;html=1;exitX=0.5;exitY=1;exitDx=0;exitDy=0;entryX=0.5;entryY=0;entryDx=0;entryDy=0;" edge="1" parent="1" source="2aQ3EjErO41UNzCxHLrq-61" target="2aQ3EjErO41UNzCxHLrq-73">
          <mxGeometry relative="1" as="geometry" />
        </mxCell>
        <mxCell id="2aQ3EjErO41UNzCxHLrq-61" value="Select course from courses list" style="rounded=1;whiteSpace=wrap;html=1;fontFamily=Helvetica;fontSize=11;fontColor=default;" vertex="1" parent="1">
          <mxGeometry x="1184" y="1485" width="149" height="60" as="geometry" />
        </mxCell>
        <mxCell id="2aQ3EjErO41UNzCxHLrq-62" value="course removed successfull messsage" style="whiteSpace=wrap;html=1;shape=mxgraph.basic.document;fontFamily=Helvetica;fontSize=11;fontColor=default;" vertex="1" parent="1">
          <mxGeometry x="1470.5" y="2138" width="100" height="100" as="geometry" />
        </mxCell>
        <mxCell id="2aQ3EjErO41UNzCxHLrq-63" style="edgeStyle=none;shape=connector;rounded=0;orthogonalLoop=1;jettySize=auto;html=1;entryX=0;entryY=0.5;entryDx=0;entryDy=0;labelBackgroundColor=default;strokeColor=default;align=center;verticalAlign=middle;fontFamily=Helvetica;fontSize=11;fontColor=default;endArrow=none;endFill=0;dashed=1;dashPattern=12 12;" edge="1" source="2aQ3EjErO41UNzCxHLrq-64" target="2aQ3EjErO41UNzCxHLrq-56" parent="1">
          <mxGeometry relative="1" as="geometry" />
        </mxCell>
        <mxCell id="2aQ3EjErO41UNzCxHLrq-64" value="Remove course" style="whiteSpace=wrap;html=1;shape=mxgraph.basic.document;fontFamily=Helvetica;fontSize=11;fontColor=default;" vertex="1" parent="1">
          <mxGeometry x="969.5" y="1320" width="100" height="100" as="geometry" />
        </mxCell>
        <mxCell id="2aQ3EjErO41UNzCxHLrq-65" style="edgeStyle=none;shape=connector;rounded=0;orthogonalLoop=1;jettySize=auto;html=1;exitX=0.5;exitY=1;exitDx=0;exitDy=0;entryX=0.5;entryY=0;entryDx=0;entryDy=0;labelBackgroundColor=default;strokeColor=default;align=center;verticalAlign=middle;fontFamily=Helvetica;fontSize=11;fontColor=default;endArrow=blockThin;endFill=1;" edge="1" source="2aQ3EjErO41UNzCxHLrq-66" target="2aQ3EjErO41UNzCxHLrq-59" parent="1">
          <mxGeometry relative="1" as="geometry">
            <mxPoint x="1259.5" y="2033" as="targetPoint" />
          </mxGeometry>
        </mxCell>
        <mxCell id="2aQ3EjErO41UNzCxHLrq-66" value="remove course" style="rounded=1;whiteSpace=wrap;html=1;fontFamily=Helvetica;fontSize=11;fontColor=default;" vertex="1" parent="1">
          <mxGeometry x="1199.5" y="1893" width="120" height="60" as="geometry" />
        </mxCell>
        <mxCell id="2aQ3EjErO41UNzCxHLrq-67" value="REMOVE COURSE" style="text;html=1;align=center;verticalAlign=middle;resizable=0;points=[];autosize=1;strokeColor=none;fillColor=none;" vertex="1" parent="1">
          <mxGeometry x="1205" y="1220" width="130" height="30" as="geometry" />
        </mxCell>
        <mxCell id="2aQ3EjErO41UNzCxHLrq-69" style="edgeStyle=none;shape=connector;rounded=0;orthogonalLoop=1;jettySize=auto;html=1;exitX=0.5;exitY=1;exitDx=0;exitDy=0;labelBackgroundColor=default;strokeColor=default;align=center;verticalAlign=middle;fontFamily=Helvetica;fontSize=11;fontColor=default;endArrow=blockThin;endFill=1;entryX=0.5;entryY=0;entryDx=0;entryDy=0;" edge="1" source="2aQ3EjErO41UNzCxHLrq-73" parent="1" target="2aQ3EjErO41UNzCxHLrq-66">
          <mxGeometry relative="1" as="geometry">
            <mxPoint x="1257.5" y="1863" as="targetPoint" />
          </mxGeometry>
        </mxCell>
        <mxCell id="2aQ3EjErO41UNzCxHLrq-70" value="yes" style="edgeLabel;html=1;align=center;verticalAlign=middle;resizable=0;points=[];fontSize=11;fontFamily=Helvetica;fontColor=default;" vertex="1" connectable="0" parent="2aQ3EjErO41UNzCxHLrq-69">
          <mxGeometry x="0.3551" relative="1" as="geometry">
            <mxPoint as="offset" />
          </mxGeometry>
        </mxCell>
        <mxCell id="2aQ3EjErO41UNzCxHLrq-71" style="edgeStyle=none;shape=connector;rounded=0;orthogonalLoop=1;jettySize=auto;html=1;exitX=1;exitY=0.5;exitDx=0;exitDy=0;labelBackgroundColor=default;strokeColor=default;align=center;verticalAlign=middle;fontFamily=Helvetica;fontSize=11;fontColor=default;endArrow=blockThin;endFill=1;" edge="1" source="2aQ3EjErO41UNzCxHLrq-73" parent="1">
          <mxGeometry relative="1" as="geometry">
            <mxPoint x="1438.25" y="1708.4705882352941" as="targetPoint" />
          </mxGeometry>
        </mxCell>
        <mxCell id="2aQ3EjErO41UNzCxHLrq-72" value="no" style="edgeLabel;html=1;align=center;verticalAlign=middle;resizable=0;points=[];" vertex="1" connectable="0" parent="2aQ3EjErO41UNzCxHLrq-71">
          <mxGeometry x="-0.4292" y="-1" relative="1" as="geometry">
            <mxPoint as="offset" />
          </mxGeometry>
        </mxCell>
        <mxCell id="2aQ3EjErO41UNzCxHLrq-73" value="Correct option" style="rhombus;whiteSpace=wrap;html=1;fontFamily=Helvetica;fontSize=11;fontColor=default;" vertex="1" parent="1">
          <mxGeometry x="1184" y="1633" width="146.5" height="150" as="geometry" />
        </mxCell>
        <mxCell id="2aQ3EjErO41UNzCxHLrq-74" style="edgeStyle=orthogonalEdgeStyle;shape=connector;rounded=0;orthogonalLoop=1;jettySize=auto;html=1;exitX=0.5;exitY=0;exitDx=0;exitDy=0;entryX=1;entryY=0.5;entryDx=0;entryDy=0;labelBackgroundColor=default;strokeColor=default;align=center;verticalAlign=middle;fontFamily=Helvetica;fontSize=11;fontColor=default;endArrow=blockThin;endFill=1;" edge="1" source="2aQ3EjErO41UNzCxHLrq-75" parent="1" target="2aQ3EjErO41UNzCxHLrq-61">
          <mxGeometry relative="1" as="geometry">
            <mxPoint x="1327.75" y="1518" as="targetPoint" />
          </mxGeometry>
        </mxCell>
        <mxCell id="2aQ3EjErO41UNzCxHLrq-75" value="invalid option" style="rounded=1;whiteSpace=wrap;html=1;fontFamily=Helvetica;fontSize=11;fontColor=default;" vertex="1" parent="1">
          <mxGeometry x="1438.25" y="1678" width="120" height="60" as="geometry" />
        </mxCell>
      </root>
    </mxGraphModel>
  </diagram>
</mxfile>
